<svg width="2538" height="1000" viewBox="0 0 2538 1000" fill="none" xmlns="http://www.w3.org/2000/svg">
<rect width="2538" height="1000" fill="white"/>
<mask id="path-1-outside-1_48_2" maskUnits="userSpaceOnUse" x="261" y="265.002" width="1386" height="471" fill="black">
<rect fill="white" x="261" y="265.002" width="1386" height="471"/>
<path fill-rule="evenodd" clip-rule="evenodd" d="M1205.82 562.502L1166.83 479.169L1187.97 458.029L1205.82 440.181V351.491V312.502H1166.83H1123.05H1009.68V325.002V562.502H1081.66V488.169H1097.25L1102.2 500.669L1126.64 562.502H1205.82ZM1081.66 426.503V376.503H1097.25H1112.85H1128.44L1128.44 389.003V392.098V395.312L1118.39 405.362L1097.25 426.503H1094.16H1081.66Z"/>
<path d="M444.211 312.502H456.711H516.19V500.169H528.69H541.682H565.375V478.836V325.002V312.502H637.353V452.836V562.502H494.211L444.211 512.502V452.836V362.502L394.211 312.502H444.211Z"/>
<path d="M989.68 312.502V376.503H937.495V562.502H865.516V389.003V376.503H813.332L763.332 326.502L761.832 325.002L749.332 312.502H813.332H989.68Z"/>
<path fill-rule="evenodd" clip-rule="evenodd" d="M1330.51 522.836L1322.41 562.502H1246.53L1289.82 376.503L1239.82 326.502L1238.32 325.002L1225.82 312.502L1304.71 312.502H1392.53H1415.98L1474.16 562.502H1398.29L1392.53 535.336L1389.89 522.836H1330.51ZM1358.4 389.169H1362.3L1363.31 394.078L1367.85 416.18L1376.69 459.169H1358.83H1343.7L1358.4 389.169Z"/>
<path d="M637.353 312.502V452.836V562.502L649.853 575.001V325.002L637.353 312.502Z"/>
<path d="M637.353 562.502H494.211L506.711 575.001H649.853L637.353 562.502Z"/>
<path d="M516.19 312.502V500.169H528.69V325.002L516.19 312.502Z"/>
<path d="M937.495 562.502H865.516L878.017 575.002H949.995L937.495 562.502Z"/>
<path d="M937.495 376.503V562.502L949.995 575.002V389.003L937.495 376.503Z"/>
<path d="M865.516 376.503H813.332L825.832 389.003H865.516V376.503Z"/>
<path d="M989.68 376.503H937.495L949.995 389.003H976.087H1002.18L989.68 376.503Z"/>
<path d="M989.68 312.502V376.503L1002.18 389.003V325.003L989.68 312.502Z"/>
<path d="M1081.66 562.502H1009.68L1022.18 575.002H1094.16L1081.66 562.502Z"/>
<path d="M1081.66 488.169V562.502L1094.16 575.002V500.669L1081.66 488.169Z"/>
<path d="M1097.25 488.169H1081.66L1094.16 500.669H1102.2L1097.25 488.169Z"/>
<path d="M1081.66 376.503V426.503H1094.16V407.753V389.003L1081.66 376.503Z"/>
<path d="M1097.25 376.503H1081.66L1094.16 389.003H1128.44L1128.44 376.503H1112.85H1097.25Z"/>
<path d="M1205.82 351.491V440.181L1218.32 452.681V325.003L1205.82 312.502V351.491Z"/>
<path d="M1205.82 440.181L1187.97 458.029L1166.83 479.169L1179.33 491.669L1218.32 452.681L1205.82 440.181Z"/>
<path d="M1166.83 479.169L1205.82 562.502L1218.32 575.002L1179.33 491.669L1166.83 479.169Z"/>
<path d="M1205.82 562.502H1126.64L1139.14 575.002H1178.73H1218.32L1205.82 562.502Z"/>
<path d="M1322.41 562.502H1246.53L1259.03 575.002H1334.91L1322.41 562.502Z"/>
<path d="M1330.51 522.836L1322.41 562.502L1334.91 575.002L1343.01 535.336L1330.51 522.836Z"/>
<path d="M1389.89 522.836H1330.51L1343.01 535.336H1392.53L1389.89 522.836Z"/>
<path d="M1474.16 562.502H1398.29L1410.79 575.002H1486.66L1474.16 562.502Z"/>
<path d="M1415.98 312.502L1474.16 562.502L1486.66 575.002L1428.48 325.003L1415.98 312.502Z"/>
<path d="M1358.4 389.169L1343.7 459.169H1358.83L1367.85 416.18L1363.31 394.078L1358.4 389.169Z"/>
<path d="M1362.3 389.169H1358.4L1363.31 394.078L1362.3 389.169Z"/>
<path d="M1367.85 416.18L1358.83 459.169H1376.69L1367.85 416.18Z"/>
<path d="M1097.25 426.503L1118.39 405.362L1128.44 395.312V392.098V389.003H1094.16V407.753V426.503H1097.25Z"/>
<path d="M1486.66 625.003L506.711 625.002H486.001L586.001 725.002L1636.66 725.003L1536.66 625.003H1486.66Z"/>
<path d="M1536.66 575.002V625.003L1636.66 725.003V477.102L1536.66 377.102V575.002Z"/>
<path fill-rule="evenodd" clip-rule="evenodd" d="M506.711 625.002L1486.66 625.003H1536.66V575.002V377.102L1495.56 336.002L1486.66 327.102L1472.06 312.502L1459.56 300.002L1436.66 277.102L1434.56 275.002L1392.53 275.002L456.711 275.002H286L311 300.003L358.856 347.858L406.711 395.713V398.502V465.336V545.713L437.356 576.358L486.001 625.002H506.711ZM565.375 312.502H637.353L649.853 325.002V575.001H506.711L494.211 562.502L472.712 541.002L456.711 525.002L444.211 512.502V452.836V362.502L394.211 312.502H444.211H456.711H516.19L528.69 325.002V500.169H541.682H565.375V478.836V325.002V312.502ZM813.332 312.502H989.68L1002.18 325.003V389.003H976.087H949.995V575.002H878.017L865.516 562.502V389.003H825.832L813.332 376.503L763.332 326.502L761.832 325.002L749.332 312.502H813.332ZM1009.68 312.502H1123.05H1166.83H1205.82L1218.32 325.003V452.681L1179.33 491.669L1218.32 575.002H1178.73H1139.14L1126.64 562.502L1102.2 500.669H1094.16V575.002H1022.18L1009.68 562.502V325.002V312.502ZM1289.82 376.503L1239.82 326.502L1238.32 325.002L1225.82 312.502L1304.71 312.502H1392.53H1415.98L1428.48 325.003L1486.66 575.002H1410.79L1398.29 562.502L1392.53 535.336H1343.01L1334.91 575.002H1259.03L1246.53 562.502L1289.82 376.503ZM813.81 575.002H843.753L826.31 537.72L813.81 511.002L801.31 498.502H741.832V325.003L729.332 312.502H657.353V325.002V562.502L669.853 575.002H813.81Z"/>
<path d="M729.332 312.502V498.502H741.832V325.003L729.332 312.502Z"/>
<path d="M801.31 562.502H657.353L669.853 575.002H813.81H843.753L831.253 562.502H801.31Z"/>
<path d="M801.31 498.502L813.81 525.22L831.253 562.502L843.753 575.002L826.31 537.72L813.81 511.002L801.31 498.502Z"/>
<path d="M657.353 562.502H801.31H831.253L813.81 525.22L801.31 498.502H741.832H729.332V312.502H657.353V325.002V562.502Z"/>
</mask>
<path fill-rule="evenodd" clip-rule="evenodd" d="M1205.82 562.502L1166.83 479.169L1187.97 458.029L1205.82 440.181V351.491V312.502H1166.83H1123.05H1009.68V325.002V562.502H1081.66V488.169H1097.25L1102.2 500.669L1126.64 562.502H1205.82ZM1081.66 426.503V376.503H1097.25H1112.85H1128.44L1128.44 389.003V392.098V395.312L1118.39 405.362L1097.25 426.503H1094.16H1081.66Z" fill="#FFF7E8"/>
<path d="M444.211 312.502H456.711H516.19V500.169H528.69H541.682H565.375V478.836V325.002V312.502H637.353V452.836V562.502H494.211L444.211 512.502V452.836V362.502L394.211 312.502H444.211Z" fill="#FFF7E8"/>
<path d="M989.68 312.502V376.503H937.495V562.502H865.516V389.003V376.503H813.332L763.332 326.502L761.832 325.002L749.332 312.502H813.332H989.68Z" fill="#FFF7E8"/>
<path fill-rule="evenodd" clip-rule="evenodd" d="M1330.51 522.836L1322.41 562.502H1246.53L1289.82 376.503L1239.82 326.502L1238.32 325.002L1225.82 312.502L1304.71 312.502H1392.53H1415.98L1474.16 562.502H1398.29L1392.53 535.336L1389.89 522.836H1330.51ZM1358.4 389.169H1362.3L1363.31 394.078L1367.85 416.18L1376.69 459.169H1358.83H1343.7L1358.4 389.169Z" fill="#FFF7E8"/>
<path d="M637.353 312.502V452.836V562.502L649.853 575.001V325.002L637.353 312.502Z" fill="#2E221D"/>
<path d="M637.353 562.502H494.211L506.711 575.001H649.853L637.353 562.502Z" fill="#2E221D"/>
<path d="M516.19 312.502V500.169H528.69V325.002L516.19 312.502Z" fill="#2E221D"/>
<path d="M937.495 562.502H865.516L878.017 575.002H949.995L937.495 562.502Z" fill="#2E221D"/>
<path d="M937.495 376.503V562.502L949.995 575.002V389.003L937.495 376.503Z" fill="#2E221D"/>
<path d="M865.516 376.503H813.332L825.832 389.003H865.516V376.503Z" fill="#2E221D"/>
<path d="M989.68 376.503H937.495L949.995 389.003H976.087H1002.18L989.68 376.503Z" fill="#2E221D"/>
<path d="M989.68 312.502V376.503L1002.18 389.003V325.003L989.68 312.502Z" fill="#2E221D"/>
<path d="M1081.66 562.502H1009.68L1022.18 575.002H1094.16L1081.66 562.502Z" fill="#2E221D"/>
<path d="M1081.66 488.169V562.502L1094.16 575.002V500.669L1081.66 488.169Z" fill="#2E221D"/>
<path d="M1097.25 488.169H1081.66L1094.16 500.669H1102.2L1097.25 488.169Z" fill="#2E221D"/>
<path d="M1081.66 376.503V426.503H1094.16V407.753V389.003L1081.66 376.503Z" fill="#2E221D"/>
<path d="M1097.25 376.503H1081.66L1094.16 389.003H1128.44L1128.44 376.503H1112.85H1097.25Z" fill="#2E221D"/>
<path d="M1205.82 351.491V440.181L1218.32 452.681V325.003L1205.82 312.502V351.491Z" fill="#2E221D"/>
<path d="M1205.82 440.181L1187.97 458.029L1166.83 479.169L1179.33 491.669L1218.32 452.681L1205.82 440.181Z" fill="#2E221D"/>
<path d="M1166.83 479.169L1205.82 562.502L1218.32 575.002L1179.33 491.669L1166.83 479.169Z" fill="#2E221D"/>
<path d="M1205.82 562.502H1126.64L1139.14 575.002H1178.73H1218.32L1205.82 562.502Z" fill="#2E221D"/>
<path d="M1322.41 562.502H1246.53L1259.03 575.002H1334.91L1322.41 562.502Z" fill="#2E221D"/>
<path d="M1330.51 522.836L1322.41 562.502L1334.91 575.002L1343.01 535.336L1330.51 522.836Z" fill="#2E221D"/>
<path d="M1389.89 522.836H1330.51L1343.01 535.336H1392.53L1389.89 522.836Z" fill="#2E221D"/>
<path d="M1474.16 562.502H1398.29L1410.79 575.002H1486.66L1474.16 562.502Z" fill="#2E221D"/>
<path d="M1415.98 312.502L1474.16 562.502L1486.66 575.002L1428.48 325.003L1415.98 312.502Z" fill="#2E221D"/>
<path d="M1358.4 389.169L1343.7 459.169H1358.83L1367.85 416.18L1363.31 394.078L1358.4 389.169Z" fill="#2E221D"/>
<path d="M1362.3 389.169H1358.4L1363.31 394.078L1362.3 389.169Z" fill="#332725"/>
<path d="M1367.85 416.18L1358.83 459.169H1376.69L1367.85 416.18Z" fill="#F2C230"/>
<path d="M1097.25 426.503L1118.39 405.362L1128.44 395.312V392.098V389.003H1094.16V407.753V426.503H1097.25Z" fill="#F2C230"/>
<path d="M1486.66 625.003L506.711 625.002H486.001L586.001 725.002L1636.66 725.003L1536.66 625.003H1486.66Z" fill="url(#paint0_linear_48_2)"/>
<path d="M1536.66 575.002V625.003L1636.66 725.003V477.102L1536.66 377.102V575.002Z" fill="url(#paint1_linear_48_2)"/>
<path fill-rule="evenodd" clip-rule="evenodd" d="M506.711 625.002L1486.66 625.003H1536.66V575.002V377.102L1495.56 336.002L1486.66 327.102L1472.06 312.502L1459.56 300.002L1436.66 277.102L1434.56 275.002L1392.53 275.002L456.711 275.002H286L311 300.003L358.856 347.858L406.711 395.713V398.502V465.336V545.713L437.356 576.358L486.001 625.002H506.711ZM565.375 312.502H637.353L649.853 325.002V575.001H506.711L494.211 562.502L472.712 541.002L456.711 525.002L444.211 512.502V452.836V362.502L394.211 312.502H444.211H456.711H516.19L528.69 325.002V500.169H541.682H565.375V478.836V325.002V312.502ZM813.332 312.502H989.68L1002.18 325.003V389.003H976.087H949.995V575.002H878.017L865.516 562.502V389.003H825.832L813.332 376.503L763.332 326.502L761.832 325.002L749.332 312.502H813.332ZM1009.68 312.502H1123.05H1166.83H1205.82L1218.32 325.003V452.681L1179.33 491.669L1218.32 575.002H1178.73H1139.14L1126.64 562.502L1102.2 500.669H1094.16V575.002H1022.18L1009.68 562.502V325.002V312.502ZM1289.82 376.503L1239.82 326.502L1238.32 325.002L1225.82 312.502L1304.71 312.502H1392.53H1415.98L1428.48 325.003L1486.66 575.002H1410.79L1398.29 562.502L1392.53 535.336H1343.01L1334.91 575.002H1259.03L1246.53 562.502L1289.82 376.503ZM813.81 575.002H843.753L826.31 537.72L813.81 511.002L801.31 498.502H741.832V325.003L729.332 312.502H657.353V325.002V562.502L669.853 575.002H813.81Z" fill="#F2C230"/>
<path d="M729.332 312.502V498.502H741.832V325.003L729.332 312.502Z" fill="#2E221D"/>
<path d="M801.31 562.502H657.353L669.853 575.002H813.81H843.753L831.253 562.502H801.31Z" fill="#2E221D"/>
<path d="M801.31 498.502L813.81 525.22L831.253 562.502L843.753 575.002L826.31 537.72L813.81 511.002L801.31 498.502Z" fill="#2E221D"/>
<path d="M657.353 562.502H801.31H831.253L813.81 525.22L801.31 498.502H741.832H729.332V312.502H657.353V325.002V562.502Z" fill="#FFF7E8"/>
<path d="M516.19 312.502L519.725 308.967L518.261 307.502H516.19V312.502ZM516.19 500.169H511.19V505.169H516.19V500.169ZM565.375 312.502V307.502H560.375V312.502H565.375ZM637.353 312.502L640.889 308.967L639.424 307.502H637.353V312.502ZM801.31 498.502L804.846 494.967L803.381 493.502H801.31V498.502ZM657.353 562.502H652.353V564.573L653.818 566.037L657.353 562.502ZM657.353 312.502V307.502H652.353V312.502H657.353ZM729.332 312.502L732.867 308.967L731.403 307.502H729.332V312.502ZM729.332 498.502H724.332V503.502H729.332V498.502ZM989.68 312.502L993.215 308.967L991.751 307.502H989.68V312.502ZM937.495 376.503V371.503H932.495V376.503H937.495ZM865.516 562.502H860.516V564.573L861.981 566.037L865.516 562.502ZM865.516 376.503H870.516V371.503H865.516V376.503ZM1166.83 479.169L1163.3 475.634L1160.82 478.113L1162.3 481.288L1166.83 479.169ZM1126.64 562.502L1121.99 564.34L1122.38 565.304L1123.11 566.037L1126.64 562.502ZM1097.25 488.169L1101.9 486.331L1100.65 483.169H1097.25V488.169ZM1081.66 488.169V483.169H1076.66V488.169H1081.66ZM1009.68 562.502H1004.68V564.573L1006.14 566.037L1009.68 562.502ZM1009.68 312.502V307.502H1004.68V312.502H1009.68ZM1081.66 376.503V371.503H1076.66V376.503H1081.66ZM1081.66 426.503H1076.66V431.503H1081.66V426.503ZM1330.51 522.836V517.836H1326.42L1325.61 521.835L1330.51 522.836ZM1246.53 562.502L1241.66 561.368L1241.03 564.073L1243 566.037L1246.53 562.502ZM1304.71 312.502V317.502V317.502V312.502ZM1415.98 312.502L1419.52 308.967L1418.05 307.502H1415.98V312.502ZM1398.29 562.502L1393.39 563.537L1393.7 564.988L1394.75 566.037L1398.29 562.502ZM1389.89 522.836L1394.78 521.8L1393.94 517.836H1389.89V522.836ZM1362.3 389.169L1367.19 388.162L1366.37 384.169H1362.3V389.169ZM1358.4 389.169V384.169H1354.34L1353.5 388.142L1358.4 389.169ZM1343.7 459.169L1338.81 458.142L1337.54 464.169H1343.7V459.169ZM1376.69 459.169V464.169H1382.82L1381.59 458.162L1376.69 459.169ZM565.375 500.169V505.169H570.375V500.169H565.375ZM494.211 562.502V557.502H482.14L490.676 566.037L494.211 562.502ZM1205.82 312.502L1209.36 308.967L1207.89 307.502H1205.82V312.502ZM1187.97 458.029L1191.51 461.564V461.564L1187.97 458.029ZM1097.25 426.503V431.503H1099.32L1100.79 430.038L1097.25 426.503ZM1118.39 405.362L1121.93 408.898V408.898L1118.39 405.362ZM1128.44 376.503L1133.44 376.503V371.503H1128.44V376.503ZM1128.44 395.312L1131.98 398.847L1133.44 397.383V395.312H1128.44ZM394.211 312.502V307.502H382.14L390.676 316.038L394.211 312.502ZM444.211 362.502H449.211V360.431L447.747 358.967L444.211 362.502ZM763.332 326.502L766.867 322.967L766.867 322.967L763.332 326.502ZM749.332 312.502V307.502H737.261L745.796 316.038L749.332 312.502ZM1239.82 326.502L1243.36 322.967V322.967L1239.82 326.502ZM1289.82 376.503L1294.69 377.636L1295.32 374.931L1293.36 372.967L1289.82 376.503ZM1225.82 312.502V307.502L1213.75 307.502L1222.29 316.038L1225.82 312.502ZM506.711 575.001L503.176 578.537L504.64 580.001H506.711V575.001ZM649.853 575.001V580.001H654.853V575.001H649.853ZM649.853 325.002H654.853V322.931L653.389 321.467L649.853 325.002ZM528.69 325.002H533.69V322.931L532.225 321.467L528.69 325.002ZM669.853 575.002L666.318 578.537L667.782 580.002H669.853V575.002ZM741.832 325.003H746.832V322.931L745.367 321.467L741.832 325.003ZM825.832 389.003L822.296 392.538L823.761 394.003H825.832V389.003ZM878.017 575.002L874.481 578.537L875.945 580.002H878.017V575.002ZM949.995 575.002V580.002H954.995V575.002H949.995ZM1002.18 389.003V394.003H1007.18V389.003H1002.18ZM1002.18 325.003H1007.18V322.931L1005.72 321.467L1002.18 325.003ZM1022.18 575.002L1018.64 578.537L1020.11 580.002H1022.18V575.002ZM1094.16 575.002V580.002H1099.16V575.002H1094.16ZM1139.14 575.002L1135.61 578.537L1137.07 580.002H1139.14V575.002ZM1218.32 575.002V580.002H1226.18L1222.85 572.883L1218.32 575.002ZM1218.32 452.681L1221.86 456.217L1223.32 454.752V452.681H1218.32ZM1218.32 325.003H1223.32V322.931L1221.86 321.467L1218.32 325.003ZM1128.44 389.003H1133.44V389.003L1128.44 389.003ZM1259.03 575.002L1255.5 578.537L1256.96 580.002H1259.03V575.002ZM1334.91 575.002V580.002H1338.99L1339.81 576.002L1334.91 575.002ZM1410.79 575.002L1407.25 578.537L1408.71 580.002H1410.79V575.002ZM1486.66 575.002V580.002H1492.96L1491.53 573.868L1486.66 575.002ZM1428.48 325.003L1433.35 323.869L1433.03 322.478L1432.02 321.467L1428.48 325.003ZM506.711 625.002V620.002V620.002V625.002ZM1486.66 625.003V630.003V630.003V625.003ZM1238.32 325.002L1234.78 328.538V328.538L1238.32 325.002ZM761.832 325.002L758.296 328.538L758.296 328.538L761.832 325.002ZM813.81 525.22L809.281 527.339L813.81 525.22ZM813.81 511.002L818.339 508.883L817.967 508.088L817.346 507.467L813.81 511.002ZM826.31 537.72L821.781 539.839L826.31 537.72ZM843.753 575.002V580.002H851.612L848.282 572.883L843.753 575.002ZM516.19 312.502H511.19V500.169H516.19H521.19V312.502H516.19ZM565.375 312.502V317.502H637.353V312.502V307.502H565.375V312.502ZM637.353 312.502H632.353V452.836H637.353H642.353V312.502H637.353ZM801.31 562.502V557.502H657.353V562.502V567.502H801.31V562.502ZM657.353 312.502V317.502H729.332V312.502V307.502H657.353V312.502ZM729.332 312.502H724.332V498.502H729.332H734.332V312.502H729.332ZM989.68 312.502H984.68V376.503H989.68H994.68V312.502H989.68ZM989.68 376.503V371.503H937.495V376.503V381.503H989.68V376.503ZM937.495 376.503H932.495V562.502H937.495H942.495V376.503H937.495ZM937.495 562.502V557.502H865.516V562.502V567.502H937.495V562.502ZM865.516 376.503V371.503H813.332V376.503V381.503H865.516V376.503ZM813.332 312.502V317.502H989.68V312.502V307.502H813.332V312.502ZM1166.83 479.169L1162.3 481.288L1201.29 564.621L1205.82 562.502L1210.35 560.383L1171.36 477.05L1166.83 479.169ZM1205.82 562.502V557.502H1126.64V562.502V567.502H1205.82V562.502ZM1097.25 488.169V483.169H1081.66V488.169V493.169H1097.25V488.169ZM1081.66 488.169H1076.66V562.502H1081.66H1086.66V488.169H1081.66ZM1081.66 562.502V557.502H1009.68V562.502V567.502H1081.66V562.502ZM1009.68 312.502V317.502H1123.05V312.502V307.502H1009.68V312.502ZM1081.66 376.503H1076.66V426.503H1081.66H1086.66V376.503H1081.66ZM1330.51 522.836L1325.61 521.835L1317.51 561.502L1322.41 562.502L1327.31 563.502L1335.41 523.836L1330.51 522.836ZM1322.41 562.502V557.502H1246.53V562.502V567.502H1322.41V562.502ZM1415.98 312.502L1411.11 313.636L1469.29 563.635L1474.16 562.502L1479.03 561.368L1420.85 311.369L1415.98 312.502ZM1474.16 562.502V557.502H1398.29V562.502V567.502H1474.16V562.502ZM1389.89 522.836V517.836H1330.51V522.836V527.836H1389.89V522.836ZM1362.3 389.169V384.169H1358.4V389.169V394.169H1362.3V389.169ZM1358.4 389.169L1353.5 388.142L1338.81 458.142L1343.7 459.169L1348.6 460.197L1363.29 390.197L1358.4 389.169ZM637.353 312.502H632.353V562.502H637.353H642.353V312.502H637.353ZM541.682 500.169V505.169H565.375V500.169V495.169H541.682V500.169ZM565.375 478.836H560.375V500.169H565.375H570.375V478.836H565.375ZM444.211 452.836H439.211V512.502H444.211H449.211V452.836H444.211ZM494.211 562.502V567.502H637.353V562.502V557.502H494.211V562.502ZM637.353 562.502H642.353V452.836H637.353H632.353V562.502H637.353ZM1166.83 312.502V307.502H1123.05V312.502V317.502H1166.83V312.502ZM1187.97 458.029L1191.51 461.564L1209.36 443.716L1205.82 440.181L1202.29 436.645L1184.44 454.493L1187.97 458.029ZM1205.82 440.181H1210.82V351.491H1205.82H1200.82V440.181H1205.82ZM1187.97 458.029L1184.44 454.493L1163.3 475.634L1166.83 479.169L1170.37 482.705L1191.51 461.564L1187.97 458.029ZM1205.82 351.491H1210.82V312.502H1205.82H1200.82V351.491H1205.82ZM1166.83 312.502V317.502H1205.82V312.502V307.502H1166.83V312.502ZM1118.39 405.362L1114.86 401.827L1093.72 422.967L1097.25 426.503L1100.79 430.038L1121.93 408.898L1118.39 405.362ZM1097.25 376.503V371.503H1081.66V376.503V381.503H1097.25V376.503ZM1112.85 376.503V371.503H1097.25V376.503V381.503H1112.85V376.503ZM1128.44 376.503V371.503H1112.85V376.503V381.503H1128.44V376.503ZM1128.44 392.098H1123.44V395.312H1128.44H1133.44V392.098H1128.44ZM1128.44 395.312L1124.91 391.776L1114.86 401.827L1118.39 405.362L1121.93 408.898L1131.98 398.847L1128.44 395.312ZM394.211 312.502L390.676 316.038L440.676 366.038L444.211 362.502L447.747 358.967L397.747 308.967L394.211 312.502ZM444.211 312.502V307.502H394.211V312.502V317.502H444.211V312.502ZM444.211 452.836H449.211V362.502H444.211H439.211V452.836H444.211ZM763.332 326.502L759.796 330.038L809.796 380.038L813.332 376.503L816.867 372.967L766.867 322.967L763.332 326.502ZM813.332 312.502V307.502H749.332V312.502V317.502H813.332V312.502ZM1239.82 326.502L1236.29 330.038L1286.29 380.038L1289.82 376.503L1293.36 372.967L1243.36 322.967L1239.82 326.502ZM1225.82 312.502V317.502L1304.71 317.502V312.502V307.502L1225.82 307.502V312.502ZM1246.53 562.502L1251.4 563.635L1294.69 377.636L1289.82 376.503L1284.95 375.369L1241.66 561.368L1246.53 562.502ZM494.211 562.502L490.676 566.037L503.176 578.537L506.711 575.001L510.247 571.466L497.747 558.966L494.211 562.502ZM637.353 562.502L633.818 566.037L646.318 578.537L649.853 575.001L653.389 571.466L640.889 558.966L637.353 562.502ZM637.353 312.502L633.818 316.038L646.318 328.538L649.853 325.002L653.389 321.467L640.889 308.967L637.353 312.502ZM649.853 325.002H644.853V575.001H649.853H654.853V325.002H649.853ZM649.853 575.001V570.001H506.711V575.001V580.001H649.853V575.001ZM516.19 312.502L512.654 316.038L525.154 328.538L528.69 325.002L532.225 321.467L519.725 308.967L516.19 312.502ZM516.19 500.169V505.169H528.69V500.169V495.169H516.19V500.169ZM528.69 500.169V505.169H541.682V500.169V495.169H528.69V500.169ZM528.69 325.002H523.69V500.169H528.69H533.69V325.002H528.69ZM657.353 562.502L653.818 566.037L666.318 578.537L669.853 575.002L673.389 571.466L660.889 558.966L657.353 562.502ZM669.853 575.002V580.002H813.81V575.002V570.002H669.853V575.002ZM729.332 312.502L725.796 316.038L738.296 328.538L741.832 325.003L745.367 321.467L732.867 308.967L729.332 312.502ZM729.332 498.502V503.502H741.832V498.502V493.502H729.332V498.502ZM741.832 498.502V503.502H801.31V498.502V493.502H741.832V498.502ZM741.832 325.003H736.832V498.502H741.832H746.832V325.003H741.832ZM813.332 376.503L809.796 380.038L822.296 392.538L825.832 389.003L829.367 385.467L816.867 372.967L813.332 376.503ZM865.516 562.502L861.981 566.037L874.481 578.537L878.017 575.002L881.552 571.466L869.052 558.966L865.516 562.502ZM937.495 562.502L933.96 566.037L946.46 578.537L949.995 575.002L953.531 571.466L941.031 558.966L937.495 562.502ZM937.495 376.503L933.96 380.038L946.46 392.538L949.995 389.003L953.531 385.467L941.031 372.967L937.495 376.503ZM989.68 376.503L986.144 380.038L998.644 392.538L1002.18 389.003L1005.72 385.467L993.215 372.967L989.68 376.503ZM865.516 562.502H870.516V389.003H865.516H860.516V562.502H865.516ZM865.516 389.003H870.516V376.503H865.516H860.516V389.003H865.516ZM825.832 389.003V394.003H865.516V389.003V384.003H825.832V389.003ZM878.017 575.002V580.002H949.995V575.002V570.002H878.017V575.002ZM949.995 575.002H954.995V389.003H949.995H944.995V575.002H949.995ZM989.68 312.502L986.144 316.038L998.644 328.538L1002.18 325.003L1005.72 321.467L993.215 308.967L989.68 312.502ZM1002.18 389.003H1007.18V325.003H1002.18H997.18V389.003H1002.18ZM949.995 389.003V394.003H976.087V389.003V384.003H949.995V389.003ZM976.087 389.003V394.003H1002.18V389.003V384.003H976.087V389.003ZM1009.68 562.502L1006.14 566.037L1018.64 578.537L1022.18 575.002L1025.72 571.466L1013.22 558.966L1009.68 562.502ZM1081.66 562.502L1078.12 566.037L1090.62 578.537L1094.16 575.002L1097.69 571.466L1085.19 558.966L1081.66 562.502ZM1081.66 488.169L1078.12 491.705L1090.62 504.205L1094.16 500.669L1097.69 497.134L1085.19 484.634L1081.66 488.169ZM1126.64 562.502L1123.11 566.037L1135.61 578.537L1139.14 575.002L1142.68 571.466L1130.18 558.966L1126.64 562.502ZM1205.82 562.502L1202.29 566.037L1214.79 578.537L1218.32 575.002L1221.86 571.466L1209.36 558.966L1205.82 562.502ZM1166.83 479.169L1163.3 482.705L1175.8 495.205L1179.33 491.669L1182.87 488.134L1170.37 475.634L1166.83 479.169ZM1205.82 312.502L1202.29 316.038L1214.79 328.538L1218.32 325.003L1221.86 321.467L1209.36 308.967L1205.82 312.502ZM1081.66 376.503L1078.12 380.038L1090.62 392.538L1094.16 389.003L1097.69 385.467L1085.19 372.967L1081.66 376.503ZM1022.18 575.002V580.002H1094.16V575.002V570.002H1022.18V575.002ZM1094.16 500.669H1089.16V575.002H1094.16H1099.16V500.669H1094.16ZM1126.64 562.502L1131.29 560.663L1106.85 498.831L1102.2 500.669L1097.55 502.508L1121.99 564.34L1126.64 562.502ZM1102.2 500.669L1106.85 498.831L1101.9 486.331L1097.25 488.169L1092.6 490.008L1097.55 502.508L1102.2 500.669ZM1094.16 500.669V505.669H1102.2V500.669V495.669H1094.16V500.669ZM1179.33 491.669L1174.8 493.788L1213.79 577.121L1218.32 575.002L1222.85 572.883L1183.86 489.55L1179.33 491.669ZM1205.82 440.181L1202.29 443.716L1214.79 456.217L1218.32 452.681L1221.86 449.146L1209.36 436.645L1205.82 440.181ZM1179.33 491.669L1182.87 495.205L1221.86 456.217L1218.32 452.681L1214.79 449.146L1175.8 488.134L1179.33 491.669ZM1218.32 452.681H1223.32V325.003H1218.32H1213.32V452.681H1218.32ZM1128.44 376.503L1123.44 376.503L1123.44 389.003L1128.44 389.003L1133.44 389.003L1133.44 376.503L1128.44 376.503ZM1128.44 389.003H1123.44V392.098H1128.44H1133.44V389.003H1128.44ZM1094.16 389.003V394.003H1128.44V389.003V384.003H1094.16V389.003ZM1097.25 426.503V421.503H1094.16V426.503V431.503H1097.25V426.503ZM1094.16 426.503V421.503H1081.66V426.503V431.503H1094.16V426.503ZM1246.53 562.502L1243 566.037L1255.5 578.537L1259.03 575.002L1262.57 571.466L1250.07 558.966L1246.53 562.502ZM1322.41 562.502L1318.87 566.037L1331.37 578.537L1334.91 575.002L1338.44 571.466L1325.94 558.966L1322.41 562.502ZM1330.51 522.836L1326.97 526.371L1339.47 538.871L1343.01 535.336L1346.54 531.8L1334.04 519.3L1330.51 522.836ZM1398.29 562.502L1394.75 566.037L1407.25 578.537L1410.79 575.002L1414.32 571.466L1401.82 558.966L1398.29 562.502ZM1474.16 562.502L1470.63 566.037L1483.13 578.537L1486.66 575.002L1490.2 571.466L1477.7 558.966L1474.16 562.502ZM1415.98 312.502L1412.44 316.038L1424.94 328.538L1428.48 325.003L1432.02 321.467L1419.52 308.967L1415.98 312.502ZM1398.29 562.502L1403.18 561.466L1397.43 534.3L1392.53 535.336L1387.64 536.371L1393.39 563.537L1398.29 562.502ZM1392.53 535.336L1397.43 534.3L1394.78 521.8L1389.89 522.836L1385 523.871L1387.64 536.371L1392.53 535.336ZM1343.01 535.336V540.336H1392.53V535.336V530.336H1343.01V535.336ZM1334.91 575.002L1339.81 576.002L1347.91 536.336L1343.01 535.336L1338.11 534.336L1330.01 574.002L1334.91 575.002ZM1259.03 575.002V580.002H1334.91V575.002V570.002H1259.03V575.002ZM1410.79 575.002V580.002H1486.66V575.002V570.002H1410.79V575.002ZM1486.66 575.002L1491.53 573.868L1433.35 323.869L1428.48 325.003L1423.61 326.136L1481.79 576.135L1486.66 575.002ZM1343.7 459.169V464.169H1358.83V459.169V454.169H1343.7V459.169ZM1358.83 459.169L1363.72 460.197L1372.74 417.207L1367.85 416.18L1362.96 415.153L1353.93 458.142L1358.83 459.169ZM1367.85 416.18L1372.75 415.173L1368.2 393.07L1363.31 394.078L1358.41 395.085L1362.95 417.187L1367.85 416.18ZM1363.31 394.078L1366.84 390.542L1361.93 385.634L1358.4 389.169L1354.86 392.705L1359.77 397.613L1363.31 394.078ZM1376.69 459.169L1381.59 458.162L1372.75 415.173L1367.85 416.18L1362.95 417.187L1371.79 460.176L1376.69 459.169ZM1363.31 394.078L1368.2 393.071L1367.19 388.162L1362.3 389.169L1357.4 390.176L1358.41 395.085L1363.31 394.078ZM1358.83 459.169V464.169H1376.69V459.169V454.169H1358.83V459.169ZM506.711 625.002V630.002L1486.66 630.003V625.003V620.003L506.711 620.002V625.002ZM406.711 395.713L403.176 399.249L405.32 401.394L408.856 397.858L412.391 394.323L410.247 392.178L406.711 395.713ZM1486.66 625.003V630.003H1536.66V625.003V620.003H1486.66V625.003ZM1536.66 625.003H1541.66V575.002H1536.66H1531.66V625.003H1536.66ZM657.353 562.502H662.353V325.002H657.353H652.353V562.502H657.353ZM1239.82 326.502L1243.36 322.967L1241.86 321.467L1238.32 325.002L1234.78 328.538L1236.29 330.038L1239.82 326.502ZM1009.68 562.502H1014.68V325.002H1009.68H1004.68V562.502H1009.68ZM763.332 326.502L766.867 322.967L765.367 321.467L761.832 325.002L758.296 328.538L759.796 330.038L763.332 326.502ZM749.332 312.502L745.796 316.038L758.296 328.538L761.832 325.002L765.367 321.467L752.867 308.967L749.332 312.502ZM1009.68 325.002H1014.68V312.502H1009.68H1004.68V325.002H1009.68ZM1225.82 312.502L1222.29 316.038L1234.78 328.538L1238.32 325.002L1241.86 321.467L1229.36 308.967L1225.82 312.502ZM657.353 325.002H662.353V312.502H657.353H652.353V325.002H657.353ZM444.211 312.502V317.502H456.711V312.502V307.502H444.211V312.502ZM456.711 312.502V317.502H516.19V312.502V307.502H456.711V312.502ZM565.375 325.002H570.375V312.502H565.375H560.375V325.002H565.375ZM1304.71 312.502V317.502H1392.53V312.502V307.502H1304.71V312.502ZM1392.53 312.502V317.502H1415.98V312.502V307.502H1392.53V312.502ZM565.375 478.836H570.375V325.002H565.375H560.375V478.836H565.375ZM486.001 625.002V630.002H506.711V625.002V620.002H486.001V625.002ZM1536.66 575.002H1541.66V377.102H1536.66H1531.66V575.002H1536.66ZM1536.66 625.003L1533.13 628.538L1633.13 728.538L1636.66 725.003L1640.2 721.467L1540.2 621.467L1536.66 625.003ZM813.81 525.22L818.339 523.101L805.839 496.384L801.31 498.502L796.781 500.621L809.281 527.339L813.81 525.22ZM813.81 525.22L809.281 527.339L826.724 564.621L831.253 562.502L835.782 560.383L818.339 523.101L813.81 525.22ZM801.31 562.502V567.502H831.253V562.502V557.502H801.31V562.502ZM801.31 498.502L797.775 502.038L810.275 514.538L813.81 511.002L817.346 507.467L804.846 494.967L801.31 498.502ZM826.31 537.72L830.839 535.601L818.339 508.883L813.81 511.002L809.281 513.121L821.781 539.839L826.31 537.72ZM826.31 537.72L821.781 539.839L839.224 577.12L843.753 575.002L848.282 572.883L830.839 535.601L826.31 537.72ZM831.253 562.502L827.717 566.037L840.217 578.537L843.753 575.002L847.289 571.466L834.789 558.966L831.253 562.502ZM813.81 575.002V580.002H843.753V575.002V570.002H813.81V575.002ZM1094.16 389.003H1089.16V407.753H1094.16H1099.16V389.003H1094.16ZM1094.16 407.753H1089.16V426.503H1094.16H1099.16V407.753H1094.16ZM1139.14 575.002V580.002H1178.73V575.002V570.002H1139.14V575.002ZM1178.73 575.002V580.002H1218.32V575.002V570.002H1178.73V575.002ZM472.712 541.002L465.641 548.073H465.641L472.712 541.002ZM437.356 576.358L444.427 569.287L444.427 569.286L437.356 576.358ZM456.711 525.002L463.783 517.931L463.782 517.931L456.711 525.002ZM406.711 545.713H396.711V549.855L399.64 552.784L406.711 545.713ZM358.856 347.858L351.785 354.929L351.785 354.929L358.856 347.858ZM406.711 395.713H416.711V391.571L413.782 388.642L406.711 395.713ZM311 300.003L303.929 307.074L303.929 307.074L311 300.003ZM456.711 275.002V265.002V265.002V275.002ZM286 275.002V265.002H261.858L278.929 282.073L286 275.002ZM1392.53 275.002V285.002V285.002V275.002ZM486.001 625.002L493.072 617.931H493.072L486.001 625.002ZM1434.56 275.002L1441.63 267.931L1438.71 265.002L1434.56 265.002V275.002ZM1436.66 277.102L1429.59 284.173L1429.59 284.173L1436.66 277.102ZM1459.56 300.002L1466.63 292.931V292.931L1459.56 300.002ZM1472.06 312.502L1479.13 305.431V305.431L1472.06 312.502ZM1486.66 327.102L1479.59 334.173V334.173L1486.66 327.102ZM1495.56 336.002L1488.49 343.073V343.073L1495.56 336.002ZM1536.66 377.102L1543.73 370.031V370.031L1536.66 377.102ZM586.001 725.002L578.93 732.073L581.859 735.002H586.001V725.002ZM1636.66 725.003V735.003H1646.66V725.003H1636.66ZM1636.66 477.102H1646.66V472.96L1643.73 470.031L1636.66 477.102ZM444.211 512.502L437.14 519.573L487.14 569.573L494.211 562.502L501.282 555.431L451.282 505.431L444.211 512.502ZM406.711 545.713L399.64 552.784L430.285 583.429L437.356 576.358L444.427 569.286L413.782 538.642L406.711 545.713ZM406.711 465.336H396.711V545.713H406.711H416.711V465.336H406.711ZM406.711 465.336H416.711V398.502H406.711H396.711V465.336H406.711ZM358.856 347.858L351.785 354.929L399.64 402.784L406.711 395.713L413.782 388.642L365.927 340.787L358.856 347.858ZM406.711 398.502H416.711V395.713H406.711H396.711V398.502H406.711ZM311 300.003L303.929 307.074L351.785 354.929L358.856 347.858L365.927 340.787L318.072 292.931L311 300.003ZM286 275.002L278.929 282.073L303.929 307.074L311 300.003L318.072 292.931L293.071 267.931L286 275.002ZM456.711 275.002V265.002H286V275.002V285.002H456.711V275.002ZM456.711 275.002V285.002L1392.53 285.002V275.002V265.002L456.711 265.002V275.002ZM472.712 541.002L479.783 533.931L463.783 517.931L456.711 525.002L449.64 532.073L465.641 548.073L472.712 541.002ZM456.711 525.002L463.782 517.931L451.282 505.431L444.211 512.502L437.14 519.573L449.64 532.073L456.711 525.002ZM494.211 562.502L501.282 555.431L479.783 533.931L472.712 541.002L465.641 548.073L487.14 569.573L494.211 562.502ZM437.356 576.358L430.285 583.429L478.93 632.073L486.001 625.002L493.072 617.931L444.427 569.287L437.356 576.358ZM1434.56 275.002L1427.49 282.073L1429.59 284.173L1436.66 277.102L1443.73 270.031L1441.63 267.931L1434.56 275.002ZM1436.66 277.102L1429.59 284.173L1452.49 307.073L1459.56 300.002L1466.63 292.931L1443.73 270.031L1436.66 277.102ZM1459.56 300.002L1452.49 307.073L1464.99 319.573L1472.06 312.502L1479.13 305.431L1466.63 292.931L1459.56 300.002ZM1472.06 312.502L1464.99 319.573L1479.59 334.173L1486.66 327.102L1493.73 320.031L1479.13 305.431L1472.06 312.502ZM1486.66 327.102L1479.59 334.173L1488.49 343.073L1495.56 336.002L1502.63 328.931L1493.73 320.031L1486.66 327.102ZM1495.56 336.002L1488.49 343.073L1529.59 384.173L1536.66 377.102L1543.73 370.031L1502.63 328.931L1495.56 336.002ZM1392.53 275.002V285.002L1434.56 285.002V275.002V265.002L1392.53 265.002V275.002ZM486.001 625.002L478.93 632.073L578.93 732.073L586.001 725.002L593.072 717.931L493.072 617.931L486.001 625.002ZM1536.66 377.102L1529.59 384.173L1629.59 484.173L1636.66 477.102L1643.73 470.031L1543.73 370.031L1536.66 377.102ZM586.001 725.002V735.002L1636.66 735.003V725.003V715.003L586.001 715.002V725.002ZM1636.66 725.003H1646.66V477.102H1636.66H1626.66V725.003H1636.66Z" fill="#332725" mask="url(#path-1-outside-1_48_2)"/>
<mask id="path-3-outside-2_48_2" maskUnits="userSpaceOnUse" x="1484.66" y="265" width="782" height="471" fill="black">
<rect fill="white" x="1484.66" y="265" width="782" height="471"/>
<path d="M1778.67 625H1611.76L1711.76 725.001H1878.66L1778.66 625.002L1778.67 625Z"/>
<path fill-rule="evenodd" clip-rule="evenodd" d="M2152.03 275H2042.52L2022.08 329.546L2007.55 368.334H2002.5L1967.54 275L1509.66 275L1611.76 377.101V625H1778.67L1877.27 526.392L1877.41 336.475L1921.62 447.668L1887.17 536.293L1852.83 625.001H1959.96L1997.44 524.201H2002.08L2039.99 625.001H2152.03L2082.11 443.934L2152.03 275ZM1582.52 312.5L1570.02 300H1852.96V312.501V515.482C1819.96 548.488 1801.45 566.994 1768.45 600H1649.26H1636.76V366.745L1582.52 312.5ZM2058.15 300H2116.69L2111.51 312.5L2057.11 443.934L2117.38 600.001H2063.38H2055.59L2017.68 499.201H1981.74L1944.25 600.001H1904.98H1887.64L1946.62 447.668L1887.9 300H1951.9L1956.58 312.5L1986.86 393.334H2023.19L2058.15 300Z"/>
<path fill-rule="evenodd" clip-rule="evenodd" d="M1700.1 547.901H1735.41L1806.4 476.91V352.101H1700.1V547.901ZM1725.1 377.101H1781.4V433.398V466.556L1725.1 522.853V377.101Z"/>
<path d="M1570.02 300L1582.52 312.5L1852.96 312.501V300H1570.02Z"/>
<path d="M1649.26 600V379.245L1636.76 366.745V600H1649.26Z"/>
<path d="M1877.27 526.392L1887.17 536.293L1921.62 447.668L1877.41 336.475L1877.27 526.392Z"/>
<path d="M1781.4 377.101H1725.1L1781.4 433.398V377.101Z"/>
<path d="M1725.1 522.853L1781.4 466.556V433.398L1725.1 377.101V522.853Z"/>
<path d="M1700.1 547.901L1712.6 560.401H1747.91L1735.41 547.901H1700.1Z"/>
<path d="M1818.9 489.41L1806.4 476.911V476.91L1735.41 547.901L1747.91 560.401L1818.9 489.41Z"/>
<path d="M1818.9 364.601L1806.4 352.101V476.91V476.911L1818.9 489.41V364.601Z"/>
<path d="M1887.9 300L1900.4 312.5H1956.58L1951.9 300H1887.9Z"/>
<path d="M1946.62 447.668L1959.12 460.168L1900.4 312.5L1887.9 300L1946.62 447.668Z"/>
<path d="M1959.12 460.168L1946.62 447.668L1887.64 600.001H1904.98L1959.12 460.168Z"/>
<path d="M1986.86 393.334L1999.36 405.834H2035.69L2023.19 393.334H1986.86Z"/>
<path d="M2070.65 312.5L2058.15 300L2023.19 393.334L2035.69 405.834L2070.65 312.5Z"/>
<path d="M2007.55 368.334L2022.08 329.546L1967.54 275L2002.5 368.334H2007.55Z"/>
<path d="M2116.69 300H2058.15L2070.65 312.5H2111.51L2116.69 300Z"/>
<path d="M2152.03 275L2082.11 443.934L2182.11 543.934L2252.03 375.001L2152.03 275Z"/>
<path d="M2252.03 725.002L2152.03 625.001H2039.99L2081.65 666.665L2139.99 725.002H2252.03Z"/>
<path d="M2055.59 600.001H2063.38L2030.18 511.701L2017.68 499.201L2055.59 600.001Z"/>
<path d="M2082.11 443.934L2152.03 625.001L2252.03 725.002L2182.11 543.934L2082.11 443.934Z"/>
<path fill-rule="evenodd" clip-rule="evenodd" d="M1649.26 379.245V600H1768.45C1801.45 566.994 1819.96 548.488 1852.96 515.482V312.501L1582.52 312.5L1636.76 366.745L1649.26 379.245ZM1712.6 560.401L1700.1 547.901V352.101H1806.4L1818.9 364.601V489.41L1747.91 560.401H1712.6Z"/>
<path d="M2117.38 600.001L2057.11 443.934L2111.51 312.5H2070.65L2035.69 405.834H1999.36L1986.86 393.334L1956.58 312.5H1900.4L1959.12 460.168L1904.98 600.001H1944.25L1981.74 499.201H2017.68L2030.18 511.701L2063.38 600.001H2117.38Z"/>
<path d="M1778.66 625.002L1878.66 725.001L1915.75 687.918L1852.83 625.001L1887.17 536.293L1877.27 526.392L1778.67 625L1778.66 625.002Z"/>
<path d="M1959.96 625.001H1852.83L1915.75 687.918L1952.96 725.002H2059.96L1959.96 625.001Z"/>
<path d="M2039.99 625.001L2002.08 524.201H1997.44L1959.96 625.001L2059.96 725.002L2081.65 666.665L2039.99 625.001Z"/>
</mask>
<path d="M1778.67 625H1611.76L1711.76 725.001H1878.66L1778.66 625.002L1778.67 625Z" fill="url(#paint2_linear_48_2)"/>
<path fill-rule="evenodd" clip-rule="evenodd" d="M2152.03 275H2042.52L2022.08 329.546L2007.55 368.334H2002.5L1967.54 275L1509.66 275L1611.76 377.101V625H1778.67L1877.27 526.392L1877.41 336.475L1921.62 447.668L1887.17 536.293L1852.83 625.001H1959.96L1997.44 524.201H2002.08L2039.99 625.001H2152.03L2082.11 443.934L2152.03 275ZM1582.52 312.5L1570.02 300H1852.96V312.501V515.482C1819.96 548.488 1801.45 566.994 1768.45 600H1649.26H1636.76V366.745L1582.52 312.5ZM2058.15 300H2116.69L2111.51 312.5L2057.11 443.934L2117.38 600.001H2063.38H2055.59L2017.68 499.201H1981.74L1944.25 600.001H1904.98H1887.64L1946.62 447.668L1887.9 300H1951.9L1956.58 312.5L1986.86 393.334H2023.19L2058.15 300Z" fill="url(#paint3_linear_48_2)"/>
<path fill-rule="evenodd" clip-rule="evenodd" d="M1700.1 547.901H1735.41L1806.4 476.91V352.101H1700.1V547.901ZM1725.1 377.101H1781.4V433.398V466.556L1725.1 522.853V377.101Z" fill="url(#paint4_linear_48_2)"/>
<path d="M1570.02 300L1582.52 312.5L1852.96 312.501V300H1570.02Z" fill="url(#paint5_linear_48_2)"/>
<path d="M1649.26 600V379.245L1636.76 366.745V600H1649.26Z" fill="url(#paint6_linear_48_2)"/>
<path d="M1877.27 526.392L1887.17 536.293L1921.62 447.668L1877.41 336.475L1877.27 526.392Z" fill="url(#paint7_linear_48_2)"/>
<path d="M1781.4 377.101H1725.1L1781.4 433.398V377.101Z" fill="url(#paint8_linear_48_2)"/>
<path d="M1725.1 522.853L1781.4 466.556V433.398L1725.1 377.101V522.853Z" fill="url(#paint9_linear_48_2)"/>
<path d="M1700.1 547.901L1712.6 560.401H1747.91L1735.41 547.901H1700.1Z" fill="url(#paint10_linear_48_2)"/>
<path d="M1818.9 489.41L1806.4 476.911V476.91L1735.41 547.901L1747.91 560.401L1818.9 489.41Z" fill="url(#paint11_linear_48_2)"/>
<path d="M1818.9 364.601L1806.4 352.101V476.91V476.911L1818.9 489.41V364.601Z" fill="url(#paint12_linear_48_2)"/>
<path d="M1887.9 300L1900.4 312.5H1956.58L1951.9 300H1887.9Z" fill="url(#paint13_linear_48_2)"/>
<path d="M1946.62 447.668L1959.12 460.168L1900.4 312.5L1887.9 300L1946.62 447.668Z" fill="url(#paint14_linear_48_2)"/>
<path d="M1959.12 460.168L1946.62 447.668L1887.64 600.001H1904.98L1959.12 460.168Z" fill="url(#paint15_linear_48_2)"/>
<path d="M1986.86 393.334L1999.36 405.834H2035.69L2023.19 393.334H1986.86Z" fill="url(#paint16_linear_48_2)"/>
<path d="M2070.65 312.5L2058.15 300L2023.19 393.334L2035.69 405.834L2070.65 312.5Z" fill="url(#paint17_linear_48_2)"/>
<path d="M2007.55 368.334L2022.08 329.546L1967.54 275L2002.5 368.334H2007.55Z" fill="#F2C230"/>
<path d="M2116.69 300H2058.15L2070.65 312.5H2111.51L2116.69 300Z" fill="url(#paint18_linear_48_2)"/>
<path d="M2152.03 275L2082.11 443.934L2182.11 543.934L2252.03 375.001L2152.03 275Z" fill="url(#paint19_linear_48_2)"/>
<path d="M2252.03 725.002L2152.03 625.001H2039.99L2081.65 666.665L2139.99 725.002H2252.03Z" fill="url(#paint20_linear_48_2)"/>
<path d="M2055.59 600.001H2063.38L2030.18 511.701L2017.68 499.201L2055.59 600.001Z" fill="url(#paint21_linear_48_2)"/>
<path d="M2082.11 443.934L2152.03 625.001L2252.03 725.002L2182.11 543.934L2082.11 443.934Z" fill="url(#paint22_linear_48_2)"/>
<path fill-rule="evenodd" clip-rule="evenodd" d="M1649.26 379.245V600H1768.45C1801.45 566.994 1819.96 548.488 1852.96 515.482V312.501L1582.52 312.5L1636.76 366.745L1649.26 379.245ZM1712.6 560.401L1700.1 547.901V352.101H1806.4L1818.9 364.601V489.41L1747.91 560.401H1712.6Z" fill="url(#paint23_linear_48_2)"/>
<path d="M2117.38 600.001L2057.11 443.934L2111.51 312.5H2070.65L2035.69 405.834H1999.36L1986.86 393.334L1956.58 312.5H1900.4L1959.12 460.168L1904.98 600.001H1944.25L1981.74 499.201H2017.68L2030.18 511.701L2063.38 600.001H2117.38Z" fill="url(#paint24_linear_48_2)"/>
<path d="M1778.66 625.002L1878.66 725.001L1915.75 687.918L1852.83 625.001L1887.17 536.293L1877.27 526.392L1778.67 625L1778.66 625.002Z" fill="url(#paint25_linear_48_2)"/>
<path d="M1959.96 625.001H1852.83L1915.75 687.918L1952.96 725.002H2059.96L1959.96 625.001Z" fill="url(#paint26_linear_48_2)"/>
<path d="M2039.99 625.001L2002.08 524.201H1997.44L1959.96 625.001L2059.96 725.002L2081.65 666.665L2039.99 625.001Z" fill="url(#paint27_linear_48_2)"/>
<path d="M2002.5 368.334L1997.82 370.088L1999.03 373.334H2002.5V368.334ZM2007.55 368.334V373.334H2011.02L2012.24 370.088L2007.55 368.334ZM2082.11 443.934L2077.49 442.022L2076.73 443.87L2077.45 445.735L2082.11 443.934ZM2039.99 625.001L2035.31 626.761L2035.69 627.773L2036.45 628.537L2039.99 625.001ZM2002.08 524.201L2006.76 522.441L2005.54 519.201H2002.08V524.201ZM1997.44 524.201V519.201H1993.97L1992.76 522.458L1997.44 524.201ZM1852.83 625.001L1848.17 623.196L1846.99 626.234L1849.29 628.537L1852.83 625.001ZM1921.62 447.668L1926.29 449.476L1927 447.645L1926.27 445.82L1921.62 447.668ZM1636.76 600H1631.76V605H1636.76V600ZM1725.1 377.101V372.101H1720.1V377.101H1725.1ZM1700.1 547.901H1695.1V549.972L1696.57 551.436L1700.1 547.901ZM1700.1 352.101V347.101H1695.1V352.101H1700.1ZM1806.4 352.101L1809.94 348.565L1808.47 347.101H1806.4V352.101ZM1712.6 560.401L1709.07 563.936L1710.53 565.401H1712.6V560.401ZM1818.9 364.601H1823.9V362.53L1822.44 361.066L1818.9 364.601ZM1570.02 300V295H1557.95L1566.48 303.536L1570.02 300ZM2057.11 443.934L2052.49 442.022L2051.73 443.87L2052.45 445.735L2057.11 443.934ZM1986.86 393.334L1982.18 395.088L1982.56 396.103L1983.33 396.87L1986.86 393.334ZM1981.74 499.201V494.201H1978.27L1977.06 497.458L1981.74 499.201ZM2017.68 499.201L2021.21 495.666L2019.75 494.201H2017.68V499.201ZM2117.38 600.001V605.001H2124.67L2122.04 598.2L2117.38 600.001ZM2055.59 600.001L2050.91 601.761L2052.12 605.001H2055.59V600.001ZM2058.15 300V295H2054.68L2053.47 298.246L2058.15 300ZM2116.69 300L2121.31 301.912L2124.17 295H2116.69V300ZM1951.9 300L1956.58 298.246L1955.37 295H1951.9V300ZM1887.9 300V295H1880.54L1883.26 301.848L1887.9 300ZM1887.64 600.001L1882.98 598.196L1880.35 605.001H1887.64V600.001ZM1944.25 600.001V605.001H1947.73L1948.94 601.744L1944.25 600.001ZM1959.12 460.168L1963.79 461.973L1964.49 460.143L1963.77 458.32L1959.12 460.168ZM2035.69 405.834V410.834H2039.16L2040.37 407.588L2035.69 405.834ZM2030.18 511.701L2034.86 509.941L2034.47 508.93L2033.71 508.166L2030.18 511.701ZM1956.58 312.5L1961.27 310.746V310.746L1956.58 312.5ZM1999.36 405.834L1995.83 409.37L1997.29 410.834H1999.36V405.834ZM1852.96 515.482L1856.5 519.017L1857.96 517.553V515.482H1852.96ZM1781.4 466.556L1784.94 470.091L1786.4 468.627V466.556H1781.4ZM1806.4 476.911H1801.4V478.982L1802.86 480.447L1806.4 476.911ZM1852.96 300H1857.96V295H1852.96V300ZM1818.9 489.41L1822.44 492.946L1823.9 491.481V489.41H1818.9ZM1877.41 336.475L1882.05 334.627L1872.41 336.471L1877.41 336.475ZM1778.66 625.002L1775.13 621.466L1771.59 625.002L1775.13 628.537L1778.66 625.002ZM1878.66 725.001L1875.13 728.536L1876.57 729.98L1878.61 730L1878.66 725.001ZM1778.67 625L1782.16 628.577L1782.18 628.557L1782.2 628.536L1778.67 625ZM1747.91 560.401V565.401H1749.98L1751.44 563.936L1747.91 560.401ZM1649.26 379.245H1654.26V377.174L1652.8 375.71L1649.26 379.245ZM1781.4 377.101H1786.4V372.101H1781.4V377.101ZM1725.1 522.853H1720.1V534.924L1728.64 526.388L1725.1 522.853ZM1768.45 600V605H1770.52L1771.98 603.536L1768.45 600ZM2152.03 275L2147.41 273.088L2077.49 442.022L2082.11 443.934L2086.73 445.846L2156.65 276.912L2152.03 275ZM2082.11 443.934L2077.45 445.735L2147.37 626.803L2152.03 625.001L2156.7 623.2L2086.77 442.133L2082.11 443.934ZM2039.99 625.001L2044.67 623.241L2006.76 522.441L2002.08 524.201L1997.4 525.961L2035.31 626.761L2039.99 625.001ZM1959.96 625.001V620.001H1852.83V625.001V630.001H1959.96V625.001ZM1712.6 560.401L1716.14 556.865L1703.64 544.365L1700.1 547.901L1696.57 551.436L1709.07 563.936L1712.6 560.401ZM1818.9 364.601L1822.44 361.066L1809.94 348.565L1806.4 352.101L1802.86 355.636L1815.36 368.137L1818.9 364.601ZM1582.52 312.5L1586.05 308.965L1573.55 296.465L1570.02 300L1566.48 303.536L1578.98 316.036L1582.52 312.5ZM2058.15 300V305H2116.69V300V295H2058.15V300ZM2057.11 443.934L2052.45 445.735L2112.72 601.802L2117.38 600.001L2122.04 598.2L2061.77 442.133L2057.11 443.934ZM2070.65 312.5L2074.19 308.965L2061.69 296.465L2058.15 300L2054.62 303.536L2067.12 316.036L2070.65 312.5ZM1959.12 460.168L1962.66 456.632L1950.16 444.132L1946.62 447.668L1943.09 451.203L1955.59 463.703L1959.12 460.168ZM2116.69 300L2112.07 298.088L2106.89 310.588L2111.51 312.5L2116.13 314.412L2121.31 301.912L2116.69 300ZM2111.51 312.5L2106.89 310.588L2052.49 442.022L2057.11 443.934L2061.73 445.846L2116.13 314.412L2111.51 312.5ZM2070.65 312.5V317.5H2111.51V312.5V307.5H2070.65V312.5ZM1959.12 460.168L1954.46 458.362L1900.32 598.196L1904.98 600.001L1909.65 601.807L1963.79 461.973L1959.12 460.168ZM1904.98 600.001V605.001H1944.25V600.001V595.001H1904.98V600.001ZM2063.38 600.001V605.001H2117.38V600.001V595.001H2063.38V600.001ZM1887.64 600.001V605.001H1904.98V600.001V595.001H1887.64V600.001ZM2063.38 600.001V595.001H2055.59V600.001V605.001H2063.38V600.001ZM2007.55 368.334L2012.24 370.088L2026.77 331.3L2022.08 329.546L2017.4 327.792L2002.87 366.58L2007.55 368.334ZM1999.36 405.834L2002.9 402.299L1990.4 389.799L1986.86 393.334L1983.33 396.87L1995.83 409.37L1999.36 405.834ZM2035.69 405.834L2039.22 402.299L2026.72 389.799L2023.19 393.334L2019.65 396.87L2032.15 409.37L2035.69 405.834ZM1999.36 405.834V410.834H2035.69V405.834V400.834H1999.36V405.834ZM2030.18 511.701L2033.71 508.166L2021.21 495.666L2017.68 499.201L2014.14 502.737L2026.64 515.237L2030.18 511.701ZM2152.03 625.001L2148.5 628.537L2248.5 728.537L2252.03 725.002L2255.57 721.466L2155.57 621.466L2152.03 625.001ZM2082.11 443.934L2078.58 447.47L2178.58 547.47L2182.11 543.934L2185.65 540.399L2085.65 440.399L2082.11 443.934ZM2081.65 666.665L2085.19 663.129L2043.52 621.466L2039.99 625.001L2036.45 628.537L2078.12 670.2L2081.65 666.665ZM1900.4 312.5L1903.94 308.965L1891.44 296.465L1887.9 300L1884.37 303.536L1896.87 316.036L1900.4 312.5ZM1887.9 300L1883.26 301.848L1941.98 449.515L1946.62 447.668L1951.27 445.82L1892.55 298.153L1887.9 300ZM1818.9 489.41L1822.44 485.875L1809.94 473.376L1806.4 476.911L1802.86 480.447L1815.36 492.946L1818.9 489.41ZM1818.9 489.41H1823.9V364.601H1818.9H1813.9V489.41H1818.9ZM1778.66 625.002L1775.13 628.537L1875.13 728.536L1878.66 725.001L1882.2 721.465L1782.2 621.466L1778.66 625.002ZM1878.66 725.001L1878.61 730L1878.75 730.002L1878.8 725.002L1878.85 720.002L1878.71 720.001L1878.66 725.001ZM1778.67 625V620H1611.76V625V630H1778.67V625ZM1778.66 625.002L1782.16 628.578L1782.16 628.577L1778.67 625L1775.17 621.423L1775.17 621.425L1778.66 625.002ZM1747.91 560.401L1751.44 556.865L1738.94 544.365L1735.41 547.901L1731.87 551.436L1744.37 563.936L1747.91 560.401ZM1700.1 547.901V552.901H1735.41V547.901V542.901H1700.1V547.901ZM1712.6 560.401V565.401H1747.91V560.401V555.401H1712.6V560.401ZM1747.91 560.401L1751.44 563.936L1822.44 492.946L1818.9 489.41L1815.36 485.875L1744.37 556.865L1747.91 560.401ZM1806.4 476.91H1801.4V476.911H1806.4H1811.4V476.91H1806.4ZM1735.41 547.901L1738.94 551.436L1809.94 480.446L1806.4 476.91L1802.86 473.375L1731.87 544.365L1735.41 547.901ZM1649.26 600H1654.26V379.245H1649.26H1644.26V600H1649.26ZM1570.02 300L1566.48 303.536L1633.23 370.281L1636.76 366.745L1640.3 363.21L1573.55 296.465L1570.02 300ZM1636.76 366.745L1633.23 370.281L1645.73 382.781L1649.26 379.245L1652.8 375.71L1640.3 363.21L1636.76 366.745ZM1636.76 600H1641.76V366.745H1636.76H1631.76V600H1636.76ZM1725.1 377.101V382.101H1781.4V377.101V372.101H1725.1V377.101ZM1725.1 522.853L1728.64 526.388L1784.94 470.091L1781.4 466.556L1777.86 463.02L1721.57 519.317L1725.1 522.853ZM1725.1 377.101H1720.1V522.853H1725.1H1730.1V377.101H1725.1ZM1700.1 352.101H1695.1V547.901H1700.1H1705.1V352.101H1700.1ZM1700.1 352.101V357.101H1806.4V352.101V347.101H1700.1V352.101ZM1781.4 377.101H1776.4V433.398H1781.4H1786.4V377.101H1781.4ZM1781.4 433.398H1776.4V466.556H1781.4H1786.4V433.398H1781.4ZM1725.1 377.101L1721.57 380.637L1777.86 436.933L1781.4 433.398L1784.94 429.862L1728.64 373.566L1725.1 377.101ZM1852.96 515.482H1857.96V312.501H1852.96H1847.96V515.482H1852.96ZM1852.96 312.501H1857.96V300H1852.96H1847.96V312.501H1852.96ZM1582.52 312.5L1582.52 317.5L1852.96 317.501V312.501V307.501L1582.52 307.5L1582.52 312.5ZM1570.02 300V305H1852.96V300V295H1570.02V300ZM1967.54 275L1962.86 276.754L1997.82 370.088L2002.5 368.334L2007.18 366.58L1972.22 273.246L1967.54 275ZM1887.17 536.293L1890.71 532.757L1880.81 522.857L1877.27 526.392L1873.74 529.928L1883.64 539.828L1887.17 536.293ZM1877.27 526.392L1882.27 526.396L1882.41 336.478L1877.41 336.475L1872.41 336.471L1872.27 526.389L1877.27 526.392ZM1778.66 625.002L1782.2 628.537L1880.81 529.928L1877.27 526.392L1873.74 522.857L1775.13 621.466L1778.66 625.002ZM1636.76 600V605H1768.45V600V595H1636.76V600ZM1768.45 600L1771.98 603.536C1788.48 587.032 1801.36 574.155 1814.24 561.277C1827.12 548.399 1840 535.521 1856.5 519.017L1852.96 515.482L1849.43 511.946C1832.93 528.45 1820.05 541.327 1807.17 554.205C1794.29 567.083 1781.41 579.961 1764.91 596.465L1768.45 600ZM1877.41 336.475L1872.76 338.322L1916.98 449.515L1921.62 447.668L1926.27 445.82L1882.05 334.627L1877.41 336.475ZM1921.62 447.668L1916.96 445.859L1848.17 623.193L1852.83 625.001L1857.49 626.81L1926.29 449.476L1921.62 447.668ZM1887.9 300V305H1951.9V300V295H1887.9V300ZM1900.4 312.5V317.5H1956.58V312.5V307.5H1900.4V312.5ZM1951.9 300L1947.22 301.754L1982.18 395.088L1986.86 393.334L1991.55 391.58L1956.58 298.246L1951.9 300ZM1900.4 312.5L1895.76 314.348L1954.48 462.015L1959.12 460.168L1963.77 458.32L1905.05 310.653L1900.4 312.5ZM1946.62 447.668L1941.96 445.862L1882.98 598.196L1887.64 600.001L1892.31 601.807L1951.29 449.473L1946.62 447.668ZM1981.74 499.201L1977.06 497.458L1939.57 598.258L1944.25 600.001L1948.94 601.744L1986.43 500.944L1981.74 499.201ZM1981.74 499.201V504.201H2017.68V499.201V494.201H1981.74V499.201ZM1997.44 524.201V529.201H2002.08V524.201V519.201H1997.44V524.201ZM1959.96 625.001L1964.64 626.744L2002.13 525.944L1997.44 524.201L1992.76 522.458L1955.27 623.258L1959.96 625.001ZM2017.68 499.201L2013 500.961L2050.91 601.761L2055.59 600.001L2060.27 598.241L2022.36 497.441L2017.68 499.201ZM2030.18 511.701L2025.5 513.461L2058.7 601.761L2063.38 600.001L2068.06 598.241L2034.86 509.941L2030.18 511.701ZM2039.99 625.001V630.001H2152.03V625.001V620.001H2039.99V625.001ZM2002.5 368.334V373.334H2007.55V368.334V363.334H2002.5V368.334ZM1986.86 393.334V398.334H2023.19V393.334V388.334H1986.86V393.334ZM2058.15 300L2053.47 298.246L2018.51 391.58L2023.19 393.334L2027.87 395.088L2062.83 301.754L2058.15 300ZM2035.69 405.834L2040.37 407.588L2075.33 314.254L2070.65 312.5L2065.97 310.746L2031.01 404.08L2035.69 405.834ZM1778.67 625L1782.2 628.536L1880.81 529.928L1877.27 526.392L1873.74 522.857L1775.13 621.465L1778.67 625ZM1921.62 447.668L1916.96 445.856L1882.51 534.481L1887.17 536.293L1891.84 538.104L1926.28 449.479L1921.62 447.668ZM1887.17 536.293L1882.51 534.487L1848.17 623.196L1852.83 625.001L1857.49 626.807L1891.84 538.098L1887.17 536.293ZM1768.45 600V595H1649.26V600V605H1768.45V600ZM1649.26 600V595H1636.76V600V605H1649.26V600ZM1636.76 366.745L1640.3 363.21L1586.05 308.965L1582.52 312.5L1578.98 316.036L1633.23 370.281L1636.76 366.745ZM1951.9 300L1947.22 301.754L1951.9 314.254L1956.58 312.5L1961.27 310.746L1956.58 298.246L1951.9 300ZM1956.58 312.5L1951.9 314.254L1982.18 395.088L1986.86 393.334L1991.55 391.58L1961.27 310.746L1956.58 312.5ZM1806.4 476.91H1811.4V352.101H1806.4H1801.4V476.91H1806.4ZM1915.75 687.918L1919.28 684.383L1856.36 621.466L1852.83 625.001L1849.29 628.537L1912.21 691.454L1915.75 687.918ZM1959.96 625.001L1956.42 628.537L2056.42 728.537L2059.96 725.002L2063.49 721.466L1963.49 621.466L1959.96 625.001ZM1852.97 625.003L1849.43 628.538L1949.43 728.537L1952.96 725.002L1956.5 721.466L1856.5 621.467L1852.97 625.003ZM1806.4 352.101H1801.4V414.506H1806.4H1811.4V352.101H1806.4ZM1806.4 414.506H1801.4V476.911H1806.4H1811.4V414.506H1806.4ZM1611.76 625H1601.76V629.142L1604.69 632.071L1611.76 625ZM1967.54 275L1974.61 267.929L1971.68 265L1967.54 265V275ZM2042.52 275V265H2035.58L2033.15 271.492L2042.52 275ZM2152.03 275L2159.11 267.929L2156.18 265H2152.03V275ZM1611.76 377.101H1621.76V372.959L1618.83 370.03L1611.76 377.101ZM1509.66 275L1509.66 265L1485.52 265L1502.59 282.071L1509.66 275ZM2022.08 329.546L2015.01 336.617L2026 347.603L2031.45 333.054L2022.08 329.546ZM1952.96 725.002L1945.91 732.086L1948.83 735.002H1952.96V725.002ZM2059.96 725.002V735.002H2066.91L2069.33 728.488L2059.96 725.002ZM2139.99 725.002L2132.92 732.073L2135.85 735.002H2139.99V725.002ZM2252.03 725.002V735.002H2266.62L2261.36 721.399L2252.03 725.002ZM2182.11 543.934L2172.87 540.11L2171.34 543.805L2172.78 547.537L2182.11 543.934ZM2252.03 375.001L2261.27 378.825L2263.83 372.653L2259.11 367.929L2252.03 375.001ZM2081.65 666.665L2088.72 659.594L2077.71 648.58L2072.28 663.179L2081.65 666.665ZM1711.76 725.001L1704.69 732.072L1707.62 735.001H1711.76V725.001ZM1878.66 725.001V735.001H1882.81L1885.73 732.072L1878.66 725.001ZM1915.75 687.918L1922.8 680.834L1915.73 673.789L1908.67 680.847L1915.75 687.918ZM2042.52 275V285H2152.03V275V265H2042.52V275ZM2022.08 329.546L2031.45 333.054L2051.88 278.508L2042.52 275L2033.15 271.492L2012.72 326.038L2022.08 329.546ZM2152.03 275L2144.96 282.071L2244.96 382.072L2252.03 375.001L2259.11 367.929L2159.11 267.929L2152.03 275ZM1952.96 725.002V735.002H2059.96V725.002V715.002H1952.96V725.002ZM2139.99 725.002V735.002H2252.03V725.002V715.002H2139.99V725.002ZM2252.03 725.002L2261.36 721.399L2191.44 540.332L2182.11 543.934L2172.78 547.537L2242.71 728.604L2252.03 725.002ZM2182.11 543.934L2191.35 547.759L2261.27 378.825L2252.03 375.001L2242.79 371.176L2172.87 540.11L2182.11 543.934ZM2059.96 725.002L2069.33 728.488L2091.02 670.151L2081.65 666.665L2072.28 663.179L2050.58 721.516L2059.96 725.002ZM2081.65 666.665L2074.58 673.736L2132.92 732.073L2139.99 725.002L2147.06 717.931L2088.72 659.594L2081.65 666.665ZM1611.76 377.101H1601.76V625H1611.76H1621.76V377.101H1611.76ZM1611.76 625L1604.69 632.071L1704.69 732.072L1711.76 725.001L1718.83 717.93L1618.83 617.929L1611.76 625ZM1711.76 725.001V735.001H1878.66V725.001V715.001H1711.76V725.001ZM1509.66 275L1502.59 282.071L1604.69 384.172L1611.76 377.101L1618.83 370.03L1516.73 267.929L1509.66 275ZM1509.66 275L1509.66 285L1967.54 285V275V265L1509.66 265L1509.66 275ZM1967.54 275L1960.47 282.071L2015.01 336.617L2022.08 329.546L2029.15 322.475L1974.61 267.929L1967.54 275ZM1878.66 725.001L1885.73 732.072L1922.82 694.989L1915.75 687.918L1908.67 680.847L1871.59 717.929L1878.66 725.001ZM1915.75 687.918L1908.69 695.002L1945.91 732.086L1952.96 725.002L1960.02 717.918L1922.8 680.834L1915.75 687.918Z" fill="black" mask="url(#path-3-outside-2_48_2)"/>
<defs>
<linearGradient id="paint0_linear_48_2" x1="286" y1="500.002" x2="1636.66" y2="500.002" gradientUnits="userSpaceOnUse">
<stop offset="0.5" stop-color="#4D86E8"/>
<stop offset="0.764423" stop-color="#3C69B5"/>
<stop offset="1" stop-color="#2B4B82"/>
</linearGradient>
<linearGradient id="paint1_linear_48_2" x1="286" y1="500.002" x2="1636.66" y2="500.002" gradientUnits="userSpaceOnUse">
<stop offset="0.889423" stop-color="#E94B2B"/>
<stop offset="0.9375" stop-color="#B63B22"/>
<stop offset="1" stop-color="#832A18"/>
</linearGradient>
<linearGradient id="paint2_linear_48_2" x1="1880.85" y1="275" x2="1880.85" y2="725.002" gradientUnits="userSpaceOnUse">
<stop stop-color="#F2C230"/>
<stop offset="0.615385" stop-color="#BF9926"/>
<stop offset="1" stop-color="#8C701C"/>
</linearGradient>
<linearGradient id="paint3_linear_48_2" x1="1880.85" y1="275" x2="1880.85" y2="725.002" gradientUnits="userSpaceOnUse">
<stop stop-color="#8C701C"/>
<stop offset="0.0865385" stop-color="#BF9926"/>
<stop offset="0.278846" stop-color="#F2C230"/>
<stop offset="0.370192" stop-color="#F6E09C"/>
<stop offset="0.466346" stop-color="#F2C230"/>
<stop offset="0.759615" stop-color="#BF9926"/>
<stop offset="0.855769" stop-color="#8C701C"/>
</linearGradient>
<linearGradient id="paint4_linear_48_2" x1="1880.85" y1="275" x2="1880.85" y2="725.002" gradientUnits="userSpaceOnUse">
<stop stop-color="#8C701C"/>
<stop offset="0.0865385" stop-color="#BF9926"/>
<stop offset="0.278846" stop-color="#F2C230"/>
<stop offset="0.370192" stop-color="#F6E09C"/>
<stop offset="0.466346" stop-color="#F2C230"/>
<stop offset="0.759615" stop-color="#BF9926"/>
<stop offset="0.855769" stop-color="#8C701C"/>
</linearGradient>
<linearGradient id="paint5_linear_48_2" x1="1880.85" y1="275" x2="1880.85" y2="725.002" gradientUnits="userSpaceOnUse">
<stop offset="0.899038" stop-color="#8C701C"/>
<stop offset="0.9375" stop-color="#BF9926"/>
<stop offset="1" stop-color="#F2C230"/>
</linearGradient>
<linearGradient id="paint6_linear_48_2" x1="1880.85" y1="275" x2="1880.85" y2="725.002" gradientUnits="userSpaceOnUse">
<stop stop-color="#F2C230"/>
<stop offset="0.129808" stop-color="#BF9926"/>
<stop offset="0.350962" stop-color="#8C701C"/>
</linearGradient>
<linearGradient id="paint7_linear_48_2" x1="1880.85" y1="275" x2="1880.85" y2="725.002" gradientUnits="userSpaceOnUse">
<stop stop-color="#F2C230"/>
<stop offset="0.0817308" stop-color="#BF9926"/>
<stop offset="0.197115" stop-color="#8C701C"/>
</linearGradient>
<linearGradient id="paint8_linear_48_2" x1="1880.85" y1="275" x2="1880.85" y2="725.002" gradientUnits="userSpaceOnUse">
<stop stop-color="#F2C230"/>
<stop offset="0.129808" stop-color="#BF9926"/>
<stop offset="0.326923" stop-color="#8C701C"/>
</linearGradient>
<linearGradient id="paint9_linear_48_2" x1="1880.85" y1="275" x2="1880.85" y2="725.002" gradientUnits="userSpaceOnUse">
<stop stop-color="#F2C230"/>
<stop offset="0.25" stop-color="#BF9926"/>
<stop offset="0.533654" stop-color="#8C701C"/>
</linearGradient>
<linearGradient id="paint10_linear_48_2" x1="1880.85" y1="275" x2="1880.85" y2="725.002" gradientUnits="userSpaceOnUse">
<stop stop-color="#F2C230"/>
<stop offset="0.230769" stop-color="#BF9926"/>
<stop offset="0.485577" stop-color="#8C701C"/>
</linearGradient>
<linearGradient id="paint11_linear_48_2" x1="1880.85" y1="275" x2="1880.85" y2="725.002" gradientUnits="userSpaceOnUse">
<stop stop-color="#F2C230"/>
<stop offset="0.322115" stop-color="#BF9926"/>
<stop offset="0.980769" stop-color="#8C701C"/>
</linearGradient>
<linearGradient id="paint12_linear_48_2" x1="1880.85" y1="275" x2="1880.85" y2="725.002" gradientUnits="userSpaceOnUse">
<stop stop-color="#F2C230"/>
<stop offset="0.153846" stop-color="#BF9926"/>
<stop offset="0.475962" stop-color="#8C701C"/>
</linearGradient>
<linearGradient id="paint13_linear_48_2" x1="1880.85" y1="275" x2="1880.85" y2="725.002" gradientUnits="userSpaceOnUse">
<stop offset="0.899038" stop-color="#8C701C"/>
<stop offset="0.9375" stop-color="#BF9926"/>
<stop offset="1" stop-color="#F2C230"/>
</linearGradient>
<linearGradient id="paint14_linear_48_2" x1="1880.85" y1="275" x2="1880.85" y2="725.002" gradientUnits="userSpaceOnUse">
<stop stop-color="#F2C230"/>
<stop offset="0.129808" stop-color="#BF9926"/>
<stop offset="0.346154" stop-color="#8C701C"/>
</linearGradient>
<linearGradient id="paint15_linear_48_2" x1="1880.85" y1="275" x2="1880.85" y2="725.002" gradientUnits="userSpaceOnUse">
<stop stop-color="#F2C230"/>
<stop offset="0.341346" stop-color="#BF9926"/>
<stop offset="0.581731" stop-color="#8C701C"/>
</linearGradient>
<linearGradient id="paint16_linear_48_2" x1="1880.85" y1="275" x2="1880.85" y2="725.002" gradientUnits="userSpaceOnUse">
<stop stop-color="#F2C230"/>
<stop offset="0.149038" stop-color="#BF9926"/>
<stop offset="0.302885" stop-color="#8C701C"/>
</linearGradient>
<linearGradient id="paint17_linear_48_2" x1="1880.85" y1="275" x2="1880.85" y2="725.002" gradientUnits="userSpaceOnUse">
<stop stop-color="#F2C230"/>
<stop offset="0.134615" stop-color="#BF9926"/>
<stop offset="0.918269" stop-color="#8C701C"/>
</linearGradient>
<linearGradient id="paint18_linear_48_2" x1="1880.85" y1="275" x2="1880.85" y2="725.002" gradientUnits="userSpaceOnUse">
<stop offset="0.899038" stop-color="#8C701C"/>
<stop offset="0.9375" stop-color="#BF9926"/>
<stop offset="1" stop-color="#F2C230"/>
</linearGradient>
<linearGradient id="paint19_linear_48_2" x1="1880.85" y1="275" x2="1880.85" y2="725.002" gradientUnits="userSpaceOnUse">
<stop stop-color="#F2C230"/>
<stop offset="0.0432692" stop-color="#BF9926"/>
<stop offset="0.163462" stop-color="#8C701C"/>
</linearGradient>
<linearGradient id="paint20_linear_48_2" x1="1880.85" y1="275" x2="1880.85" y2="725.002" gradientUnits="userSpaceOnUse">
<stop stop-color="#F2C230"/>
<stop offset="0.615385" stop-color="#BF9926"/>
<stop offset="1" stop-color="#8C701C"/>
</linearGradient>
<linearGradient id="paint21_linear_48_2" x1="1880.85" y1="275" x2="1880.85" y2="725.002" gradientUnits="userSpaceOnUse">
<stop stop-color="#F2C230"/>
<stop offset="0.514423" stop-color="#BF9926"/>
<stop offset="0.634615" stop-color="#8C701C"/>
</linearGradient>
<linearGradient id="paint22_linear_48_2" x1="1880.85" y1="275" x2="1880.85" y2="725.002" gradientUnits="userSpaceOnUse">
<stop stop-color="#F2C230"/>
<stop offset="0.581731" stop-color="#BF9926"/>
<stop offset="0.850962" stop-color="#8C701C"/>
</linearGradient>
<linearGradient id="paint23_linear_48_2" x1="1880.85" y1="275" x2="1880.85" y2="725.002" gradientUnits="userSpaceOnUse">
<stop stop-color="#832A18"/>
<stop offset="0.129808" stop-color="#9D321D"/>
<stop offset="0.25" stop-color="#E94B2B"/>
<stop offset="0.413462" stop-color="#FAB9AC"/>
<stop offset="0.572115" stop-color="#E94B2B" stop-opacity="0.88"/>
<stop offset="0.677885" stop-color="#9D321D"/>
<stop offset="1" stop-color="#832A18"/>
</linearGradient>
<linearGradient id="paint24_linear_48_2" x1="1880.85" y1="275" x2="1880.85" y2="725.002" gradientUnits="userSpaceOnUse">
<stop stop-color="#832A18"/>
<stop offset="0.129808" stop-color="#9D321D"/>
<stop offset="0.25" stop-color="#E94B2B"/>
<stop offset="0.413462" stop-color="#FAB9AC"/>
<stop offset="0.572115" stop-color="#E94B2B" stop-opacity="0.88"/>
<stop offset="0.677885" stop-color="#9D321D"/>
<stop offset="1" stop-color="#832A18"/>
</linearGradient>
<linearGradient id="paint25_linear_48_2" x1="1880.85" y1="275" x2="1880.85" y2="725.002" gradientUnits="userSpaceOnUse">
<stop stop-color="#F2C230"/>
<stop offset="0.519231" stop-color="#BF9926"/>
<stop offset="0.841346" stop-color="#8C701C"/>
</linearGradient>
<linearGradient id="paint26_linear_48_2" x1="1880.85" y1="275" x2="1880.85" y2="725.002" gradientUnits="userSpaceOnUse">
<stop stop-color="#F2C230"/>
<stop offset="0.615385" stop-color="#BF9926"/>
<stop offset="1" stop-color="#8C701C"/>
</linearGradient>
<linearGradient id="paint27_linear_48_2" x1="1880.85" y1="275" x2="1880.85" y2="725.002" gradientUnits="userSpaceOnUse">
<stop stop-color="#F2C230"/>
<stop offset="0.0625" stop-color="#BF9926"/>
<stop offset="0.158654" stop-color="#8C701C"/>
</linearGradient>
</defs>
</svg>
