<svg width="2005" height="470" viewBox="0 0 2005 470" fill="none" xmlns="http://www.w3.org/2000/svg">
<mask id="path-1-outside-1_123_5" maskUnits="userSpaceOnUse" x="-0.857941" y="0.00195312" width="1386" height="471" fill="black">
<rect fill="white" x="-0.857941" y="0.00195312" width="1386" height="471"/>
<path fill-rule="evenodd" clip-rule="evenodd" d="M943.963 297.502L904.974 214.169L926.115 193.029L943.963 175.181V86.4907V47.5023H904.974H861.187H747.822V60.0023V297.502H819.8V223.169H835.395L840.338 235.669L864.786 297.502H943.963ZM819.8 161.503V111.503H835.395H850.991H866.586L866.586 124.003V127.098V130.312L856.536 140.362L835.395 161.503H832.3H819.8Z"/>
<path d="M182.354 47.5023H194.854H254.332V235.169H266.832H279.824H303.517V213.836V60.0023V47.5023H375.495V187.836V297.502H232.354L182.354 247.502V187.836V97.5024L132.353 47.5023H182.354Z"/>
<path d="M727.822 47.5023V111.503H675.637V297.502H603.658V124.003V111.503H551.474L501.474 61.5023L499.974 60.0023L487.474 47.5023H551.474H727.822Z"/>
<path fill-rule="evenodd" clip-rule="evenodd" d="M1068.65 257.836L1060.55 297.502H984.675L1027.96 111.503L977.963 61.5024L976.463 60.0023L963.963 47.5023L1042.86 47.5024H1130.68H1154.12L1212.3 297.502H1136.43L1130.68 270.336L1128.03 257.836H1068.65ZM1096.54 124.169H1100.44L1101.45 129.078L1105.99 151.18L1114.83 194.169H1096.97H1081.84L1096.54 124.169Z"/>
<path d="M375.495 47.5023V187.836V297.502L387.995 310.001V60.0023L375.495 47.5023Z"/>
<path d="M375.495 297.502H232.354L244.854 310.001H387.995L375.495 297.502Z"/>
<path d="M254.332 47.5023V235.169H266.832V60.0023L254.332 47.5023Z"/>
<path d="M675.637 297.502H603.658L616.159 310.002H688.137L675.637 297.502Z"/>
<path d="M675.637 111.503V297.502L688.137 310.002V124.003L675.637 111.503Z"/>
<path d="M603.658 111.503H551.474L563.974 124.003H603.658V111.503Z"/>
<path d="M727.822 111.503H675.637L688.137 124.003H714.229H740.322L727.822 111.503Z"/>
<path d="M727.822 47.5023V111.503L740.322 124.003V60.0025L727.822 47.5023Z"/>
<path d="M819.8 297.502H747.822L760.322 310.002H832.3L819.8 297.502Z"/>
<path d="M819.8 223.169V297.502L832.3 310.002V235.669L819.8 223.169Z"/>
<path d="M835.395 223.169H819.8L832.3 235.669H840.338L835.395 223.169Z"/>
<path d="M819.8 111.503V161.503H832.3V142.753V124.003L819.8 111.503Z"/>
<path d="M835.395 111.503H819.8L832.3 124.003H866.586L866.586 111.503H850.991H835.395Z"/>
<path d="M943.963 86.4907V175.181L956.463 187.681V60.0025L943.963 47.5023V86.4907Z"/>
<path d="M943.963 175.181L926.115 193.029L904.974 214.169L917.474 226.669L956.463 187.681L943.963 175.181Z"/>
<path d="M904.974 214.169L943.963 297.502L956.463 310.002L917.474 226.669L904.974 214.169Z"/>
<path d="M943.963 297.502H864.786L877.286 310.002H916.875H956.463L943.963 297.502Z"/>
<path d="M1060.55 297.502H984.675L997.175 310.002H1073.05L1060.55 297.502Z"/>
<path d="M1068.65 257.836L1060.55 297.502L1073.05 310.002L1081.15 270.336L1068.65 257.836Z"/>
<path d="M1128.03 257.836H1068.65L1081.15 270.336H1130.68L1128.03 257.836Z"/>
<path d="M1212.3 297.502H1136.43L1148.93 310.002H1224.8L1212.3 297.502Z"/>
<path d="M1154.12 47.5024L1212.3 297.502L1224.8 310.002L1166.62 60.0026L1154.12 47.5024Z"/>
<path d="M1096.54 124.169L1081.84 194.169H1096.97L1105.99 151.18L1101.45 129.078L1096.54 124.169Z"/>
<path d="M1100.44 124.169H1096.54L1101.45 129.078L1100.44 124.169Z"/>
<path d="M1105.99 151.18L1096.97 194.169H1114.83L1105.99 151.18Z"/>
<path d="M835.395 161.503L856.536 140.362L866.586 130.312V127.098V124.003H832.3V142.753V161.503H835.395Z"/>
<path d="M1224.8 360.003L244.854 360.002H224.143L324.143 460.002L1374.81 460.003L1274.81 360.003H1224.8Z"/>
<path d="M1274.81 310.002V360.003L1374.81 460.003V212.102L1274.81 112.102V310.002Z"/>
<path fill-rule="evenodd" clip-rule="evenodd" d="M244.854 360.002L1224.8 360.003H1274.81V310.002V112.102L1233.7 71.0019L1224.81 62.102L1210.21 47.502L1197.71 35.002L1174.81 12.102L1172.71 10.002L1130.68 10.0021L194.854 10.002H24.1421L49.1425 35.0025L96.9978 82.858L144.853 130.713V133.502V200.336V280.713L175.498 311.358L224.143 360.002H244.854ZM303.517 47.5023H375.495L387.995 60.0023V310.001H244.854L232.354 297.502L210.854 276.002L194.854 260.002L182.354 247.502V187.836V97.5024L132.353 47.5023H182.354H194.854H254.332L266.832 60.0023V235.169H279.824H303.517V213.836V60.0023V47.5023ZM551.474 47.5023H727.822L740.322 60.0025V124.003H714.229H688.137V310.002H616.159L603.658 297.502V124.003H563.974L551.474 111.503L501.474 61.5023L499.974 60.0023L487.474 47.5023H551.474ZM747.822 47.5023H861.187H904.974H943.963L956.463 60.0025V187.681L917.474 226.669L956.463 310.002H916.875H877.286L864.786 297.502L840.338 235.669H832.3V310.002H760.322L747.822 297.502V60.0023V47.5023ZM1027.96 111.503L977.963 61.5024L976.463 60.0023L963.963 47.5023L1042.86 47.5024H1130.68H1154.12L1166.62 60.0026L1224.8 310.002H1148.93L1136.43 297.502L1130.68 270.336H1081.15L1073.05 310.002H997.175L984.675 297.502L1027.96 111.503ZM551.952 310.002H581.895L564.452 272.72L551.952 246.002L539.452 233.502H479.974V60.0025L467.474 47.5023H395.495V60.0023V297.502L407.995 310.002H551.952Z"/>
<path d="M467.474 47.5023V233.502H479.974V60.0025L467.474 47.5023Z"/>
<path d="M539.452 297.502H395.495L407.995 310.002H551.952H581.895L569.395 297.502H539.452Z"/>
<path d="M539.452 233.502L551.952 260.22L569.395 297.502L581.895 310.002L564.452 272.72L551.952 246.002L539.452 233.502Z"/>
<path d="M395.495 297.502H539.452H569.395L551.952 260.22L539.452 233.502H479.974H467.474V47.5023H395.495V60.0023V297.502Z"/>
</mask>
<path fill-rule="evenodd" clip-rule="evenodd" d="M943.963 297.502L904.974 214.169L926.115 193.029L943.963 175.181V86.4907V47.5023H904.974H861.187H747.822V60.0023V297.502H819.8V223.169H835.395L840.338 235.669L864.786 297.502H943.963ZM819.8 161.503V111.503H835.395H850.991H866.586L866.586 124.003V127.098V130.312L856.536 140.362L835.395 161.503H832.3H819.8Z" fill="#FFF7E8"/>
<path d="M182.354 47.5023H194.854H254.332V235.169H266.832H279.824H303.517V213.836V60.0023V47.5023H375.495V187.836V297.502H232.354L182.354 247.502V187.836V97.5024L132.353 47.5023H182.354Z" fill="#FFF7E8"/>
<path d="M727.822 47.5023V111.503H675.637V297.502H603.658V124.003V111.503H551.474L501.474 61.5023L499.974 60.0023L487.474 47.5023H551.474H727.822Z" fill="#FFF7E8"/>
<path fill-rule="evenodd" clip-rule="evenodd" d="M1068.65 257.836L1060.55 297.502H984.675L1027.96 111.503L977.963 61.5024L976.463 60.0023L963.963 47.5023L1042.86 47.5024H1130.68H1154.12L1212.3 297.502H1136.43L1130.68 270.336L1128.03 257.836H1068.65ZM1096.54 124.169H1100.44L1101.45 129.078L1105.99 151.18L1114.83 194.169H1096.97H1081.84L1096.54 124.169Z" fill="#FFF7E8"/>
<path d="M375.495 47.5023V187.836V297.502L387.995 310.001V60.0023L375.495 47.5023Z" fill="#2E221D"/>
<path d="M375.495 297.502H232.354L244.854 310.001H387.995L375.495 297.502Z" fill="#2E221D"/>
<path d="M254.332 47.5023V235.169H266.832V60.0023L254.332 47.5023Z" fill="#2E221D"/>
<path d="M675.637 297.502H603.658L616.159 310.002H688.137L675.637 297.502Z" fill="#2E221D"/>
<path d="M675.637 111.503V297.502L688.137 310.002V124.003L675.637 111.503Z" fill="#2E221D"/>
<path d="M603.658 111.503H551.474L563.974 124.003H603.658V111.503Z" fill="#2E221D"/>
<path d="M727.822 111.503H675.637L688.137 124.003H714.229H740.322L727.822 111.503Z" fill="#2E221D"/>
<path d="M727.822 47.5023V111.503L740.322 124.003V60.0025L727.822 47.5023Z" fill="#2E221D"/>
<path d="M819.8 297.502H747.822L760.322 310.002H832.3L819.8 297.502Z" fill="#2E221D"/>
<path d="M819.8 223.169V297.502L832.3 310.002V235.669L819.8 223.169Z" fill="#2E221D"/>
<path d="M835.395 223.169H819.8L832.3 235.669H840.338L835.395 223.169Z" fill="#2E221D"/>
<path d="M819.8 111.503V161.503H832.3V142.753V124.003L819.8 111.503Z" fill="#2E221D"/>
<path d="M835.395 111.503H819.8L832.3 124.003H866.586L866.586 111.503H850.991H835.395Z" fill="#2E221D"/>
<path d="M943.963 86.4907V175.181L956.463 187.681V60.0025L943.963 47.5023V86.4907Z" fill="#2E221D"/>
<path d="M943.963 175.181L926.115 193.029L904.974 214.169L917.474 226.669L956.463 187.681L943.963 175.181Z" fill="#2E221D"/>
<path d="M904.974 214.169L943.963 297.502L956.463 310.002L917.474 226.669L904.974 214.169Z" fill="#2E221D"/>
<path d="M943.963 297.502H864.786L877.286 310.002H916.875H956.463L943.963 297.502Z" fill="#2E221D"/>
<path d="M1060.55 297.502H984.675L997.175 310.002H1073.05L1060.55 297.502Z" fill="#2E221D"/>
<path d="M1068.65 257.836L1060.55 297.502L1073.05 310.002L1081.15 270.336L1068.65 257.836Z" fill="#2E221D"/>
<path d="M1128.03 257.836H1068.65L1081.15 270.336H1130.68L1128.03 257.836Z" fill="#2E221D"/>
<path d="M1212.3 297.502H1136.43L1148.93 310.002H1224.8L1212.3 297.502Z" fill="#2E221D"/>
<path d="M1154.12 47.5024L1212.3 297.502L1224.8 310.002L1166.62 60.0026L1154.12 47.5024Z" fill="#2E221D"/>
<path d="M1096.54 124.169L1081.84 194.169H1096.97L1105.99 151.18L1101.45 129.078L1096.54 124.169Z" fill="#2E221D"/>
<path d="M1100.44 124.169H1096.54L1101.45 129.078L1100.44 124.169Z" fill="#332725"/>
<path d="M1105.99 151.18L1096.97 194.169H1114.83L1105.99 151.18Z" fill="#F2C230"/>
<path d="M835.395 161.503L856.536 140.362L866.586 130.312V127.098V124.003H832.3V142.753V161.503H835.395Z" fill="#F2C230"/>
<path d="M1224.8 360.003L244.854 360.002H224.143L324.143 460.002L1374.81 460.003L1274.81 360.003H1224.8Z" fill="url(#paint0_linear_123_5)"/>
<path d="M1274.81 310.002V360.003L1374.81 460.003V212.102L1274.81 112.102V310.002Z" fill="url(#paint1_linear_123_5)"/>
<path fill-rule="evenodd" clip-rule="evenodd" d="M244.854 360.002L1224.8 360.003H1274.81V310.002V112.102L1233.7 71.0019L1224.81 62.102L1210.21 47.502L1197.71 35.002L1174.81 12.102L1172.71 10.002L1130.68 10.0021L194.854 10.002H24.1421L49.1425 35.0025L96.9978 82.858L144.853 130.713V133.502V200.336V280.713L175.498 311.358L224.143 360.002H244.854ZM303.517 47.5023H375.495L387.995 60.0023V310.001H244.854L232.354 297.502L210.854 276.002L194.854 260.002L182.354 247.502V187.836V97.5024L132.353 47.5023H182.354H194.854H254.332L266.832 60.0023V235.169H279.824H303.517V213.836V60.0023V47.5023ZM551.474 47.5023H727.822L740.322 60.0025V124.003H714.229H688.137V310.002H616.159L603.658 297.502V124.003H563.974L551.474 111.503L501.474 61.5023L499.974 60.0023L487.474 47.5023H551.474ZM747.822 47.5023H861.187H904.974H943.963L956.463 60.0025V187.681L917.474 226.669L956.463 310.002H916.875H877.286L864.786 297.502L840.338 235.669H832.3V310.002H760.322L747.822 297.502V60.0023V47.5023ZM1027.96 111.503L977.963 61.5024L976.463 60.0023L963.963 47.5023L1042.86 47.5024H1130.68H1154.12L1166.62 60.0026L1224.8 310.002H1148.93L1136.43 297.502L1130.68 270.336H1081.15L1073.05 310.002H997.175L984.675 297.502L1027.96 111.503ZM551.952 310.002H581.895L564.452 272.72L551.952 246.002L539.452 233.502H479.974V60.0025L467.474 47.5023H395.495V60.0023V297.502L407.995 310.002H551.952Z" fill="#F2C230"/>
<path d="M467.474 47.5023V233.502H479.974V60.0025L467.474 47.5023Z" fill="#2E221D"/>
<path d="M539.452 297.502H395.495L407.995 310.002H551.952H581.895L569.395 297.502H539.452Z" fill="#2E221D"/>
<path d="M539.452 233.502L551.952 260.22L569.395 297.502L581.895 310.002L564.452 272.72L551.952 246.002L539.452 233.502Z" fill="#2E221D"/>
<path d="M395.495 297.502H539.452H569.395L551.952 260.22L539.452 233.502H479.974H467.474V47.5023H395.495V60.0023V297.502Z" fill="#FFF7E8"/>
<path d="M254.332 47.5023L257.867 43.9668L256.403 42.5023H254.332V47.5023ZM254.332 235.169H249.332V240.169H254.332V235.169ZM303.517 47.5023V42.5023H298.517V47.5023H303.517ZM375.495 47.5023L379.031 43.9668L377.566 42.5023H375.495V47.5023ZM539.452 233.502L542.988 229.967L541.523 228.502H539.452V233.502ZM395.495 297.502H390.495V299.573L391.96 301.037L395.495 297.502ZM395.495 47.5023V42.5023H390.495V47.5023H395.495ZM467.474 47.5023L471.009 43.9668L469.545 42.5023H467.474V47.5023ZM467.474 233.502H462.474V238.502H467.474V233.502ZM727.822 47.5023L731.357 43.9668L729.893 42.5023H727.822V47.5023ZM675.637 111.503V106.503H670.637V111.503H675.637ZM603.658 297.502H598.658V299.573L600.123 301.037L603.658 297.502ZM603.658 111.503H608.658V106.503H603.658V111.503ZM904.974 214.169L901.439 210.634L898.96 213.113L900.446 216.288L904.974 214.169ZM864.786 297.502L860.137 299.34L860.518 300.304L861.251 301.037L864.786 297.502ZM835.395 223.169L840.045 221.331L838.795 218.169H835.395V223.169ZM819.8 223.169V218.169H814.8V223.169H819.8ZM747.822 297.502H742.822V299.573L744.286 301.037L747.822 297.502ZM747.822 47.5023V42.5023H742.822V47.5023H747.822ZM819.8 111.503V106.503H814.8V111.503H819.8ZM819.8 161.503H814.8V166.503H819.8V161.503ZM1068.65 257.836V252.836H1064.57L1063.75 256.835L1068.65 257.836ZM984.675 297.502L979.805 296.368L979.175 299.073L981.139 301.037L984.675 297.502ZM1042.86 47.5024V52.5024V52.5024V47.5024ZM1154.12 47.5024L1157.66 43.9669L1156.19 42.5024H1154.12V47.5024ZM1136.43 297.502L1131.54 298.537L1131.84 299.988L1132.89 301.037L1136.43 297.502ZM1128.03 257.836L1132.92 256.8L1132.08 252.836H1128.03V257.836ZM1100.44 124.169L1105.34 123.162L1104.52 119.169H1100.44V124.169ZM1096.54 124.169V119.169H1092.48L1091.65 123.142L1096.54 124.169ZM1081.84 194.169L1076.95 193.142L1075.69 199.169H1081.84V194.169ZM1114.83 194.169V199.169H1120.97L1119.73 193.162L1114.83 194.169ZM303.517 235.169V240.169H308.517V235.169H303.517ZM232.354 297.502V292.502H220.282L228.818 301.037L232.354 297.502ZM943.963 47.5023L947.498 43.9668L946.034 42.5023H943.963V47.5023ZM926.115 193.029L929.65 196.564V196.564L926.115 193.029ZM835.395 161.503V166.503H837.466L838.931 165.038L835.395 161.503ZM856.536 140.362L860.071 143.898V143.898L856.536 140.362ZM866.586 111.503L871.586 111.503V106.503H866.586V111.503ZM866.586 130.312L870.121 133.847L871.586 132.383V130.312H866.586ZM132.353 47.5023V42.5023H120.282L128.818 51.0378L132.353 47.5023ZM182.354 97.5024H187.354V95.4313L185.889 93.9669L182.354 97.5024ZM501.474 61.5023L505.009 57.9668L505.009 57.9668L501.474 61.5023ZM487.474 47.5023V42.5023H475.403L483.938 51.0378L487.474 47.5023ZM977.963 61.5024L981.498 57.9669V57.9669L977.963 61.5024ZM1027.96 111.503L1032.83 112.636L1033.46 109.931L1031.5 107.967L1027.96 111.503ZM963.963 47.5023V42.5023L951.892 42.5023L960.427 51.0379L963.963 47.5023ZM244.854 310.001L241.318 313.537L242.782 315.001H244.854V310.001ZM387.995 310.001V315.001H392.995V310.001H387.995ZM387.995 60.0023H392.995V57.9312L391.531 56.4667L387.995 60.0023ZM266.832 60.0023H271.832V57.9312L270.367 56.4667L266.832 60.0023ZM407.995 310.002L404.46 313.537L405.924 315.002H407.995V310.002ZM479.974 60.0025H484.974V57.9315L483.509 56.467L479.974 60.0025ZM563.974 124.003L560.438 127.538L561.903 129.003H563.974V124.003ZM616.159 310.002L612.623 313.537L614.088 315.002H616.159V310.002ZM688.137 310.002V315.002H693.137V310.002H688.137ZM740.322 124.003V129.003H745.322V124.003H740.322ZM740.322 60.0025H745.322V57.9315L743.857 56.467L740.322 60.0025ZM760.322 310.002L756.786 313.537L758.251 315.002H760.322V310.002ZM832.3 310.002V315.002H837.3V310.002H832.3ZM877.286 310.002L873.751 313.537L875.215 315.002H877.286V310.002ZM956.463 310.002V315.002H964.322L960.991 307.883L956.463 310.002ZM956.463 187.681L959.998 191.217L961.463 189.752V187.681H956.463ZM956.463 60.0025H961.463V57.9315L959.998 56.467L956.463 60.0025ZM866.586 124.003H871.586V124.003L866.586 124.003ZM997.175 310.002L993.639 313.537L995.104 315.002H997.175V310.002ZM1073.05 310.002V315.002H1077.13L1077.95 311.002L1073.05 310.002ZM1148.93 310.002L1145.39 313.537L1146.86 315.002H1148.93V310.002ZM1224.8 310.002V315.002H1231.1L1229.67 308.868L1224.8 310.002ZM1166.62 60.0026L1171.49 58.8692L1171.17 57.4775L1170.16 56.4671L1166.62 60.0026ZM244.854 360.002V355.002V355.002V360.002ZM1224.8 360.003V365.003V365.003V360.003ZM976.463 60.0023L972.927 63.5378V63.5378L976.463 60.0023ZM499.974 60.0023L496.438 63.5378L496.438 63.5378L499.974 60.0023ZM551.952 260.22L547.423 262.339L551.952 260.22ZM551.952 246.002L556.481 243.883L556.109 243.088L555.488 242.467L551.952 246.002ZM564.452 272.72L559.923 274.839L564.452 272.72ZM581.895 310.002V315.002H589.755L586.424 307.883L581.895 310.002ZM254.332 47.5023H249.332V235.169H254.332H259.332V47.5023H254.332ZM303.517 47.5023V52.5023H375.495V47.5023V42.5023H303.517V47.5023ZM375.495 47.5023H370.495V187.836H375.495H380.495V47.5023H375.495ZM539.452 297.502V292.502H395.495V297.502V302.502H539.452V297.502ZM395.495 47.5023V52.5023H467.474V47.5023V42.5023H395.495V47.5023ZM467.474 47.5023H462.474V233.502H467.474H472.474V47.5023H467.474ZM727.822 47.5023H722.822V111.503H727.822H732.822V47.5023H727.822ZM727.822 111.503V106.503H675.637V111.503V116.503H727.822V111.503ZM675.637 111.503H670.637V297.502H675.637H680.637V111.503H675.637ZM675.637 297.502V292.502H603.658V297.502V302.502H675.637V297.502ZM603.658 111.503V106.503H551.474V111.503V116.503H603.658V111.503ZM551.474 47.5023V52.5023H727.822V47.5023V42.5023H551.474V47.5023ZM904.974 214.169L900.446 216.288L939.434 299.621L943.963 297.502L948.491 295.383L909.503 212.05L904.974 214.169ZM943.963 297.502V292.502H864.786V297.502V302.502H943.963V297.502ZM835.395 223.169V218.169H819.8V223.169V228.169H835.395V223.169ZM819.8 223.169H814.8V297.502H819.8H824.8V223.169H819.8ZM819.8 297.502V292.502H747.822V297.502V302.502H819.8V297.502ZM747.822 47.5023V52.5023H861.187V47.5023V42.5023H747.822V47.5023ZM819.8 111.503H814.8V161.503H819.8H824.8V111.503H819.8ZM1068.65 257.836L1063.75 256.835L1055.65 296.502L1060.55 297.502L1065.45 298.502L1073.55 258.836L1068.65 257.836ZM1060.55 297.502V292.502H984.675V297.502V302.502H1060.55V297.502ZM1154.12 47.5024L1149.25 48.6358L1207.43 298.635L1212.3 297.502L1217.17 296.368L1158.99 46.369L1154.12 47.5024ZM1212.3 297.502V292.502H1136.43V297.502V302.502H1212.3V297.502ZM1128.03 257.836V252.836H1068.65V257.836V262.836H1128.03V257.836ZM1100.44 124.169V119.169H1096.54V124.169V129.169H1100.44V124.169ZM1096.54 124.169L1091.65 123.142L1076.95 193.142L1081.84 194.169L1086.74 195.197L1101.43 125.197L1096.54 124.169ZM375.495 47.5023H370.495V297.502H375.495H380.495V47.5023H375.495ZM279.824 235.169V240.169H303.517V235.169V230.169H279.824V235.169ZM303.517 213.836H298.517V235.169H303.517H308.517V213.836H303.517ZM182.354 187.836H177.354V247.502H182.354H187.354V187.836H182.354ZM232.354 297.502V302.502H375.495V297.502V292.502H232.354V297.502ZM375.495 297.502H380.495V187.836H375.495H370.495V297.502H375.495ZM904.974 47.5023V42.5023H861.187V47.5023V52.5023H904.974V47.5023ZM926.115 193.029L929.65 196.564L947.498 178.716L943.963 175.181L940.427 171.645L922.579 189.493L926.115 193.029ZM943.963 175.181H948.963V86.4907H943.963H938.963V175.181H943.963ZM926.115 193.029L922.579 189.493L901.439 210.634L904.974 214.169L908.51 217.705L929.65 196.564L926.115 193.029ZM943.963 86.4907H948.963V47.5023H943.963H938.963V86.4907H943.963ZM904.974 47.5023V52.5023H943.963V47.5023V42.5023H904.974V47.5023ZM856.536 140.362L853 136.827L831.86 157.967L835.395 161.503L838.931 165.038L860.071 143.898L856.536 140.362ZM835.395 111.503V106.503H819.8V111.503V116.503H835.395V111.503ZM850.991 111.503V106.503H835.395V111.503V116.503H850.991V111.503ZM866.586 111.503V106.503H850.991V111.503V116.503H866.586V111.503ZM866.586 127.098H861.586V130.312H866.586H871.586V127.098H866.586ZM866.586 130.312L863.05 126.776L853 136.827L856.536 140.362L860.071 143.898L870.121 133.847L866.586 130.312ZM132.353 47.5023L128.818 51.0378L178.818 101.038L182.354 97.5024L185.889 93.9669L135.889 43.9668L132.353 47.5023ZM182.354 47.5023V42.5023H132.353V47.5023V52.5023H182.354V47.5023ZM182.354 187.836H187.354V97.5024H182.354H177.354V187.836H182.354ZM501.474 61.5023L497.938 65.0378L547.938 115.038L551.474 111.503L555.009 107.967L505.009 57.9668L501.474 61.5023ZM551.474 47.5023V42.5023H487.474V47.5023V52.5023H551.474V47.5023ZM977.963 61.5024L974.427 65.0379L1024.43 115.038L1027.96 111.503L1031.5 107.967L981.498 57.9669L977.963 61.5024ZM963.963 47.5023V52.5023L1042.86 52.5024V47.5024V42.5024L963.963 42.5023V47.5023ZM984.675 297.502L989.545 298.635L1032.83 112.636L1027.96 111.503L1023.09 110.369L979.805 296.368L984.675 297.502ZM232.354 297.502L228.818 301.037L241.318 313.537L244.854 310.001L248.389 306.466L235.889 293.966L232.354 297.502ZM375.495 297.502L371.96 301.037L384.46 313.537L387.995 310.001L391.531 306.466L379.031 293.966L375.495 297.502ZM375.495 47.5023L371.96 51.0378L384.46 63.5378L387.995 60.0023L391.531 56.4667L379.031 43.9668L375.495 47.5023ZM387.995 60.0023H382.995V310.001H387.995H392.995V60.0023H387.995ZM387.995 310.001V305.001H244.854V310.001V315.001H387.995V310.001ZM254.332 47.5023L250.796 51.0378L263.296 63.5378L266.832 60.0023L270.367 56.4667L257.867 43.9668L254.332 47.5023ZM254.332 235.169V240.169H266.832V235.169V230.169H254.332V235.169ZM266.832 235.169V240.169H279.824V235.169V230.169H266.832V235.169ZM266.832 60.0023H261.832V235.169H266.832H271.832V60.0023H266.832ZM395.495 297.502L391.96 301.037L404.46 313.537L407.995 310.002L411.531 306.466L399.031 293.966L395.495 297.502ZM407.995 310.002V315.002H551.952V310.002V305.002H407.995V310.002ZM467.474 47.5023L463.938 51.0378L476.438 63.538L479.974 60.0025L483.509 56.467L471.009 43.9668L467.474 47.5023ZM467.474 233.502V238.502H479.974V233.502V228.502H467.474V233.502ZM479.974 233.502V238.502H539.452V233.502V228.502H479.974V233.502ZM479.974 60.0025H474.974V233.502H479.974H484.974V60.0025H479.974ZM551.474 111.503L547.938 115.038L560.438 127.538L563.974 124.003L567.509 120.467L555.009 107.967L551.474 111.503ZM603.658 297.502L600.123 301.037L612.623 313.537L616.159 310.002L619.694 306.466L607.194 293.966L603.658 297.502ZM675.637 297.502L672.102 301.037L684.602 313.537L688.137 310.002L691.673 306.466L679.173 293.966L675.637 297.502ZM675.637 111.503L672.102 115.038L684.602 127.538L688.137 124.003L691.673 120.467L679.173 107.967L675.637 111.503ZM727.822 111.503L724.286 115.038L736.786 127.538L740.322 124.003L743.857 120.467L731.357 107.967L727.822 111.503ZM603.658 297.502H608.658V124.003H603.658H598.658V297.502H603.658ZM603.658 124.003H608.658V111.503H603.658H598.658V124.003H603.658ZM563.974 124.003V129.003H603.658V124.003V119.003H563.974V124.003ZM616.159 310.002V315.002H688.137V310.002V305.002H616.159V310.002ZM688.137 310.002H693.137V124.003H688.137H683.137V310.002H688.137ZM727.822 47.5023L724.286 51.0378L736.786 63.538L740.322 60.0025L743.857 56.467L731.357 43.9668L727.822 47.5023ZM740.322 124.003H745.322V60.0025H740.322H735.322V124.003H740.322ZM688.137 124.003V129.003H714.229V124.003V119.003H688.137V124.003ZM714.229 124.003V129.003H740.322V124.003V119.003H714.229V124.003ZM747.822 297.502L744.286 301.037L756.786 313.537L760.322 310.002L763.857 306.466L751.357 293.966L747.822 297.502ZM819.8 297.502L816.264 301.037L828.764 313.537L832.3 310.002L835.835 306.466L823.335 293.966L819.8 297.502ZM819.8 223.169L816.264 226.705L828.764 239.205L832.3 235.669L835.836 232.134L823.336 219.634L819.8 223.169ZM864.786 297.502L861.251 301.037L873.751 313.537L877.286 310.002L880.822 306.466L868.322 293.966L864.786 297.502ZM943.963 297.502L940.427 301.037L952.927 313.537L956.463 310.002L959.998 306.466L947.498 293.966L943.963 297.502ZM904.974 214.169L901.439 217.705L913.939 230.205L917.474 226.669L921.01 223.134L908.51 210.634L904.974 214.169ZM943.963 47.5023L940.427 51.0378L952.927 63.538L956.463 60.0025L959.998 56.467L947.498 43.9668L943.963 47.5023ZM819.8 111.503L816.264 115.038L828.764 127.538L832.3 124.003L835.836 120.467L823.336 107.967L819.8 111.503ZM760.322 310.002V315.002H832.3V310.002V305.002H760.322V310.002ZM832.3 235.669H827.3V310.002H832.3H837.3V235.669H832.3ZM864.786 297.502L869.436 295.663L844.988 233.831L840.338 235.669L835.688 237.508L860.137 299.34L864.786 297.502ZM840.338 235.669L844.988 233.831L840.045 221.331L835.395 223.169L830.746 225.008L835.688 237.508L840.338 235.669ZM832.3 235.669V240.669H840.338V235.669V230.669H832.3V235.669ZM917.474 226.669L912.946 228.788L951.934 312.121L956.463 310.002L960.991 307.883L922.003 224.55L917.474 226.669ZM943.963 175.181L940.427 178.716L952.927 191.217L956.463 187.681L959.998 184.146L947.498 171.645L943.963 175.181ZM917.474 226.669L921.01 230.205L959.998 191.217L956.463 187.681L952.927 184.146L913.939 223.134L917.474 226.669ZM956.463 187.681H961.463V60.0025H956.463H951.463V187.681H956.463ZM866.586 111.503L861.586 111.503L861.586 124.003L866.586 124.003L871.586 124.003L871.586 111.503L866.586 111.503ZM866.586 124.003H861.586V127.098H866.586H871.586V124.003H866.586ZM832.3 124.003V129.003H866.586V124.003V119.003H832.3V124.003ZM835.395 161.503V156.503H832.3V161.503V166.503H835.395V161.503ZM832.3 161.503V156.503H819.8V161.503V166.503H832.3V161.503ZM984.675 297.502L981.139 301.037L993.639 313.537L997.175 310.002L1000.71 306.466L988.21 293.966L984.675 297.502ZM1060.55 297.502L1057.02 301.037L1069.52 313.537L1073.05 310.002L1076.59 306.466L1064.09 293.966L1060.55 297.502ZM1068.65 257.836L1065.11 261.371L1077.61 273.871L1081.15 270.336L1084.68 266.8L1072.18 254.3L1068.65 257.836ZM1136.43 297.502L1132.89 301.037L1145.39 313.537L1148.93 310.002L1152.46 306.466L1139.96 293.966L1136.43 297.502ZM1212.3 297.502L1208.77 301.037L1221.27 313.537L1224.8 310.002L1228.34 306.466L1215.84 293.966L1212.3 297.502ZM1154.12 47.5024L1150.59 51.0379L1163.09 63.5381L1166.62 60.0026L1170.16 56.4671L1157.66 43.9669L1154.12 47.5024ZM1136.43 297.502L1141.32 296.466L1135.57 269.3L1130.68 270.336L1125.78 271.371L1131.54 298.537L1136.43 297.502ZM1130.68 270.336L1135.57 269.3L1132.92 256.8L1128.03 257.836L1123.14 258.871L1125.78 271.371L1130.68 270.336ZM1081.15 270.336V275.336H1130.68V270.336V265.336H1081.15V270.336ZM1073.05 310.002L1077.95 311.002L1086.05 271.336L1081.15 270.336L1076.25 269.336L1068.15 309.002L1073.05 310.002ZM997.175 310.002V315.002H1073.05V310.002V305.002H997.175V310.002ZM1148.93 310.002V315.002H1224.8V310.002V305.002H1148.93V310.002ZM1224.8 310.002L1229.67 308.868L1171.49 58.8692L1166.62 60.0026L1161.75 61.136L1219.93 311.135L1224.8 310.002ZM1081.84 194.169V199.169H1096.97V194.169V189.169H1081.84V194.169ZM1096.97 194.169L1101.86 195.197L1110.89 152.207L1105.99 151.18L1101.1 150.153L1092.08 193.142L1096.97 194.169ZM1105.99 151.18L1110.89 150.173L1106.35 128.07L1101.45 129.078L1096.55 130.085L1101.1 152.187L1105.99 151.18ZM1101.45 129.078L1104.98 125.542L1100.08 120.634L1096.54 124.169L1093 127.705L1097.91 132.613L1101.45 129.078ZM1114.83 194.169L1119.73 193.162L1110.89 150.173L1105.99 151.18L1101.1 152.187L1109.94 195.176L1114.83 194.169ZM1101.45 129.078L1106.35 128.071L1105.34 123.162L1100.44 124.169L1095.54 125.176L1096.55 130.085L1101.45 129.078ZM1096.97 194.169V199.169H1114.83V194.169V189.169H1096.97V194.169ZM244.854 360.002V365.002L1224.8 365.003V360.003V355.003L244.854 355.002V360.002ZM144.853 130.713L141.318 134.249L143.462 136.394L146.998 132.858L150.533 129.323L148.389 127.178L144.853 130.713ZM1224.8 360.003V365.003H1274.81V360.003V355.003H1224.8V360.003ZM1274.81 360.003H1279.81V310.002H1274.81H1269.81V360.003H1274.81ZM395.495 297.502H400.495V60.0023H395.495H390.495V297.502H395.495ZM977.963 61.5024L981.498 57.9669L979.998 56.4667L976.463 60.0023L972.927 63.5378L974.427 65.0379L977.963 61.5024ZM747.822 297.502H752.822V60.0023H747.822H742.822V297.502H747.822ZM501.474 61.5023L505.009 57.9668L503.509 56.4667L499.974 60.0023L496.438 63.5378L497.938 65.0379L501.474 61.5023ZM487.474 47.5023L483.938 51.0378L496.438 63.5378L499.974 60.0023L503.509 56.4667L491.009 43.9668L487.474 47.5023ZM747.822 60.0023H752.822V47.5023H747.822H742.822V60.0023H747.822ZM963.963 47.5023L960.427 51.0379L972.927 63.5378L976.463 60.0023L979.998 56.4667L967.498 43.9668L963.963 47.5023ZM395.495 60.0023H400.495V47.5023H395.495H390.495V60.0023H395.495ZM182.354 47.5023V52.5023H194.854V47.5023V42.5023H182.354V47.5023ZM194.854 47.5023V52.5023H254.332V47.5023V42.5023H194.854V47.5023ZM303.517 60.0023H308.517V47.5023H303.517H298.517V60.0023H303.517ZM1042.86 47.5024V52.5024H1130.68V47.5024V42.5024H1042.86V47.5024ZM1130.68 47.5024V52.5024H1154.12V47.5024V42.5024H1130.68V47.5024ZM303.517 213.836H308.517V60.0023H303.517H298.517V213.836H303.517ZM224.143 360.002V365.002H244.854V360.002V355.002H224.143V360.002ZM1274.81 310.002H1279.81V112.102H1274.81H1269.81V310.002H1274.81ZM1274.81 360.003L1271.27 363.538L1371.27 463.538L1374.81 460.003L1378.34 456.467L1278.34 356.467L1274.81 360.003ZM551.952 260.22L556.481 258.101L543.981 231.384L539.452 233.502L534.923 235.621L547.423 262.339L551.952 260.22ZM551.952 260.22L547.423 262.339L564.866 299.621L569.395 297.502L573.924 295.383L556.481 258.101L551.952 260.22ZM539.452 297.502V302.502H569.395V297.502V292.502H539.452V297.502ZM539.452 233.502L535.917 237.038L548.417 249.538L551.952 246.002L555.488 242.467L542.988 229.967L539.452 233.502ZM564.452 272.72L568.981 270.601L556.481 243.883L551.952 246.002L547.423 248.121L559.923 274.839L564.452 272.72ZM564.452 272.72L559.923 274.839L577.366 312.12L581.895 310.002L586.424 307.883L568.981 270.601L564.452 272.72ZM569.395 297.502L565.86 301.037L578.36 313.537L581.895 310.002L585.431 306.466L572.931 293.966L569.395 297.502ZM551.952 310.002V315.002H581.895V310.002V305.002H551.952V310.002ZM832.3 124.003H827.3V142.753H832.3H837.3V124.003H832.3ZM832.3 142.753H827.3V161.503H832.3H837.3V142.753H832.3ZM877.286 310.002V315.002H916.875V310.002V305.002H877.286V310.002ZM916.875 310.002V315.002H956.463V310.002V305.002H916.875V310.002ZM210.854 276.002L203.783 283.073H203.783L210.854 276.002ZM175.498 311.358L182.569 304.287L182.569 304.286L175.498 311.358ZM194.854 260.002L201.925 252.931L201.925 252.931L194.854 260.002ZM144.853 280.713H134.853V284.855L137.782 287.784L144.853 280.713ZM96.9978 82.858L89.9267 89.929L89.9267 89.929L96.9978 82.858ZM144.853 130.713H154.853V126.571L151.924 123.642L144.853 130.713ZM49.1425 35.0025L42.0715 42.0736L42.0715 42.0736L49.1425 35.0025ZM194.854 10.002V0.00195312V0.00195312V10.002ZM24.1421 10.002V0.00195312H3.8147e-06L17.071 17.073L24.1421 10.002ZM1130.68 10.0021V20.0021V20.0021V10.0021ZM224.143 360.002L231.214 352.931H231.214L224.143 360.002ZM1172.71 10.002L1179.78 2.93094L1176.85 0.00193501L1172.71 0.00195312V10.002ZM1174.81 12.102L1167.73 19.173L1167.73 19.173L1174.81 12.102ZM1197.71 35.002L1204.78 27.9309V27.9309L1197.71 35.002ZM1210.21 47.502L1217.28 40.4309V40.4309L1210.21 47.502ZM1224.81 62.102L1217.73 69.173V69.173L1224.81 62.102ZM1233.7 71.0019L1226.63 78.0729V78.0729L1233.7 71.0019ZM1274.81 112.102L1281.88 105.031V105.031L1274.81 112.102ZM324.143 460.002L317.072 467.073L320.001 470.002H324.143V460.002ZM1374.81 460.003V470.003H1384.81V460.003H1374.81ZM1374.81 212.102H1384.81V207.96L1381.88 205.031L1374.81 212.102ZM182.354 247.502L175.283 254.573L225.283 304.573L232.354 297.502L239.425 290.431L189.425 240.431L182.354 247.502ZM144.853 280.713L137.782 287.784L168.427 318.429L175.498 311.358L182.569 304.286L151.924 273.642L144.853 280.713ZM144.853 200.336H134.853V280.713H144.853H154.853V200.336H144.853ZM144.853 200.336H154.853V133.502H144.853H134.853V200.336H144.853ZM96.9978 82.858L89.9267 89.929L137.782 137.784L144.853 130.713L151.924 123.642L104.069 75.7869L96.9978 82.858ZM144.853 133.502H154.853V130.713H144.853H134.853V133.502H144.853ZM49.1425 35.0025L42.0715 42.0736L89.9267 89.929L96.9978 82.858L104.069 75.7869L56.2136 27.9315L49.1425 35.0025ZM24.1421 10.002L17.071 17.073L42.0715 42.0736L49.1425 35.0025L56.2136 27.9315L31.2131 2.9309L24.1421 10.002ZM194.854 10.002V0.00195312H24.1421V10.002V20.002H194.854V10.002ZM194.854 10.002V20.002L1130.68 20.0021V10.0021V0.00213623L194.854 0.00195312V10.002ZM210.854 276.002L217.925 268.931L201.925 252.931L194.854 260.002L187.783 267.073L203.783 283.073L210.854 276.002ZM194.854 260.002L201.925 252.931L189.425 240.431L182.354 247.502L175.283 254.573L187.783 267.073L194.854 260.002ZM232.354 297.502L239.425 290.431L217.925 268.931L210.854 276.002L203.783 283.073L225.283 304.573L232.354 297.502ZM175.498 311.358L168.427 318.429L217.072 367.073L224.143 360.002L231.214 352.931L182.569 304.287L175.498 311.358ZM1172.71 10.002L1165.63 17.073L1167.73 19.173L1174.81 12.102L1181.88 5.03094L1179.78 2.93094L1172.71 10.002ZM1174.81 12.102L1167.73 19.173L1190.63 42.073L1197.71 35.002L1204.78 27.9309L1181.88 5.03089L1174.81 12.102ZM1197.71 35.002L1190.63 42.073L1203.13 54.573L1210.21 47.502L1217.28 40.4309L1204.78 27.9309L1197.71 35.002ZM1210.21 47.502L1203.13 54.573L1217.73 69.173L1224.81 62.102L1231.88 55.0309L1217.28 40.4309L1210.21 47.502ZM1224.81 62.102L1217.73 69.173L1226.63 78.0729L1233.7 71.0019L1240.78 63.9308L1231.88 55.0309L1224.81 62.102ZM1233.7 71.0019L1226.63 78.0729L1267.73 119.173L1274.81 112.102L1281.88 105.031L1240.78 63.9308L1233.7 71.0019ZM1130.68 10.0021V20.0021L1172.71 20.002V10.002V0.00195312L1130.68 0.00213623V10.0021ZM224.143 360.002L217.072 367.073L317.072 467.073L324.143 460.002L331.214 452.931L231.214 352.931L224.143 360.002ZM1274.81 112.102L1267.73 119.173L1367.73 219.173L1374.81 212.102L1381.88 205.031L1281.88 105.031L1274.81 112.102ZM324.143 460.002V470.002L1374.81 470.003V460.003V450.003L324.143 450.002V460.002ZM1374.81 460.003H1384.81V212.102H1374.81H1364.81V460.003H1374.81Z" fill="#332725" mask="url(#path-1-outside-1_123_5)"/>
<mask id="path-3-outside-2_123_5" maskUnits="userSpaceOnUse" x="1222.81" y="0" width="782" height="471" fill="black">
<rect fill="white" x="1222.81" width="782" height="471"/>
<path d="M1516.81 360H1349.91L1449.91 460.001H1616.81L1516.81 360.002L1516.81 360Z"/>
<path fill-rule="evenodd" clip-rule="evenodd" d="M1890.18 10.0002H1780.66L1760.23 64.5459L1745.7 103.334H1740.64L1705.68 10.0002L1247.81 10L1349.91 112.101V360H1516.81L1615.42 261.392L1615.55 71.4748L1659.77 182.668L1625.32 271.293L1590.97 360.001H1698.1L1735.59 259.201H1740.22L1778.13 360.001H1890.18L1820.25 178.934L1890.18 10.0002ZM1320.66 47.5002L1308.16 35.0002H1591.11V47.5007V250.482C1558.1 283.488 1539.59 301.994 1506.59 335H1387.41H1374.91V101.745L1320.66 47.5002ZM1796.29 35.0002H1854.83L1849.65 47.5002L1795.25 178.934L1855.52 335.001H1801.53H1793.73L1755.82 234.201H1719.88L1682.4 335.001H1643.13H1625.79L1684.77 182.668L1626.05 35.0002H1690.04L1694.73 47.5002L1725.01 128.334H1761.33L1796.29 35.0002Z"/>
<path fill-rule="evenodd" clip-rule="evenodd" d="M1438.25 282.901H1473.55L1544.54 211.91V87.1008H1438.25V282.901ZM1463.25 112.101H1519.54V168.398V201.556L1463.25 257.853V112.101Z"/>
<path d="M1308.16 35.0002L1320.66 47.5002L1591.11 47.5007V35.0002H1308.16Z"/>
<path d="M1387.41 335V114.245L1374.91 101.745V335H1387.41Z"/>
<path d="M1615.42 261.392L1625.32 271.293L1659.77 182.668L1615.55 71.4748L1615.42 261.392Z"/>
<path d="M1519.54 112.101H1463.25L1519.54 168.398V112.101Z"/>
<path d="M1463.25 257.853L1519.54 201.556V168.398L1463.25 112.101V257.853Z"/>
<path d="M1438.25 282.901L1450.75 295.401H1486.05L1473.55 282.901H1438.25Z"/>
<path d="M1557.04 224.41L1544.54 211.911V211.91L1473.55 282.901L1486.05 295.401L1557.04 224.41Z"/>
<path d="M1557.04 99.601L1544.54 87.1008V211.91V211.911L1557.04 224.41V99.601Z"/>
<path d="M1626.05 35.0002L1638.55 47.5002H1694.73L1690.04 35.0002H1626.05Z"/>
<path d="M1684.77 182.668L1697.27 195.168L1638.55 47.5002L1626.05 35.0002L1684.77 182.668Z"/>
<path d="M1697.27 195.168L1684.77 182.668L1625.79 335.001H1643.13L1697.27 195.168Z"/>
<path d="M1725.01 128.334L1737.51 140.834H1773.83L1761.33 128.334H1725.01Z"/>
<path d="M1808.79 47.5002L1796.29 35.0002L1761.33 128.334L1773.83 140.834L1808.79 47.5002Z"/>
<path d="M1745.7 103.334L1760.23 64.5459L1705.68 10.0002L1740.64 103.334H1745.7Z"/>
<path d="M1854.83 35.0002H1796.29L1808.79 47.5002H1849.65L1854.83 35.0002Z"/>
<path d="M1890.18 10.0002L1820.25 178.934L1920.25 278.934L1990.18 110.001L1890.18 10.0002Z"/>
<path d="M1990.18 460.002L1890.18 360.001H1778.13L1819.79 401.665L1878.13 460.002H1990.18Z"/>
<path d="M1793.73 335.001H1801.53L1768.32 246.701L1755.82 234.201L1793.73 335.001Z"/>
<path d="M1820.25 178.934L1890.18 360.001L1990.18 460.002L1920.25 278.934L1820.25 178.934Z"/>
<path fill-rule="evenodd" clip-rule="evenodd" d="M1387.41 114.245V335H1506.59C1539.59 301.994 1558.1 283.488 1591.11 250.482V47.5007L1320.66 47.5002L1374.91 101.745L1387.41 114.245ZM1450.75 295.401L1438.25 282.901V87.1008H1544.54L1557.04 99.601V224.41L1486.05 295.401H1450.75Z"/>
<path d="M1855.52 335.001L1795.25 178.934L1849.65 47.5002H1808.79L1773.83 140.834H1737.51L1725.01 128.334L1694.73 47.5002H1638.55L1697.27 195.168L1643.13 335.001H1682.4L1719.88 234.201H1755.82L1768.32 246.701L1801.53 335.001H1855.52Z"/>
<path d="M1516.81 360.002L1616.81 460.001L1653.89 422.918L1590.97 360.001L1625.32 271.293L1615.42 261.392L1516.81 360L1516.81 360.002Z"/>
<path d="M1698.1 360.001H1590.97L1653.89 422.918L1691.11 460.002H1798.1L1698.1 360.001Z"/>
<path d="M1778.13 360.001L1740.22 259.201H1735.59L1698.1 360.001L1798.1 460.002L1819.79 401.665L1778.13 360.001Z"/>
</mask>
<path d="M1516.81 360H1349.91L1449.91 460.001H1616.81L1516.81 360.002L1516.81 360Z" fill="url(#paint2_linear_123_5)"/>
<path fill-rule="evenodd" clip-rule="evenodd" d="M1890.18 10.0002H1780.66L1760.23 64.5459L1745.7 103.334H1740.64L1705.68 10.0002L1247.81 10L1349.91 112.101V360H1516.81L1615.42 261.392L1615.55 71.4748L1659.77 182.668L1625.32 271.293L1590.97 360.001H1698.1L1735.59 259.201H1740.22L1778.13 360.001H1890.18L1820.25 178.934L1890.18 10.0002ZM1320.66 47.5002L1308.16 35.0002H1591.11V47.5007V250.482C1558.1 283.488 1539.59 301.994 1506.59 335H1387.41H1374.91V101.745L1320.66 47.5002ZM1796.29 35.0002H1854.83L1849.65 47.5002L1795.25 178.934L1855.52 335.001H1801.53H1793.73L1755.82 234.201H1719.88L1682.4 335.001H1643.13H1625.79L1684.77 182.668L1626.05 35.0002H1690.04L1694.73 47.5002L1725.01 128.334H1761.33L1796.29 35.0002Z" fill="url(#paint3_linear_123_5)"/>
<path fill-rule="evenodd" clip-rule="evenodd" d="M1438.25 282.901H1473.55L1544.54 211.91V87.1008H1438.25V282.901ZM1463.25 112.101H1519.54V168.398V201.556L1463.25 257.853V112.101Z" fill="url(#paint4_linear_123_5)"/>
<path d="M1308.16 35.0002L1320.66 47.5002L1591.11 47.5007V35.0002H1308.16Z" fill="url(#paint5_linear_123_5)"/>
<path d="M1387.41 335V114.245L1374.91 101.745V335H1387.41Z" fill="url(#paint6_linear_123_5)"/>
<path d="M1615.42 261.392L1625.32 271.293L1659.77 182.668L1615.55 71.4748L1615.42 261.392Z" fill="url(#paint7_linear_123_5)"/>
<path d="M1519.54 112.101H1463.25L1519.54 168.398V112.101Z" fill="url(#paint8_linear_123_5)"/>
<path d="M1463.25 257.853L1519.54 201.556V168.398L1463.25 112.101V257.853Z" fill="url(#paint9_linear_123_5)"/>
<path d="M1438.25 282.901L1450.75 295.401H1486.05L1473.55 282.901H1438.25Z" fill="url(#paint10_linear_123_5)"/>
<path d="M1557.04 224.41L1544.54 211.911V211.91L1473.55 282.901L1486.05 295.401L1557.04 224.41Z" fill="url(#paint11_linear_123_5)"/>
<path d="M1557.04 99.601L1544.54 87.1008V211.91V211.911L1557.04 224.41V99.601Z" fill="url(#paint12_linear_123_5)"/>
<path d="M1626.05 35.0002L1638.55 47.5002H1694.73L1690.04 35.0002H1626.05Z" fill="url(#paint13_linear_123_5)"/>
<path d="M1684.77 182.668L1697.27 195.168L1638.55 47.5002L1626.05 35.0002L1684.77 182.668Z" fill="url(#paint14_linear_123_5)"/>
<path d="M1697.27 195.168L1684.77 182.668L1625.79 335.001H1643.13L1697.27 195.168Z" fill="url(#paint15_linear_123_5)"/>
<path d="M1725.01 128.334L1737.51 140.834H1773.83L1761.33 128.334H1725.01Z" fill="url(#paint16_linear_123_5)"/>
<path d="M1808.79 47.5002L1796.29 35.0002L1761.33 128.334L1773.83 140.834L1808.79 47.5002Z" fill="url(#paint17_linear_123_5)"/>
<path d="M1745.7 103.334L1760.23 64.5459L1705.68 10.0002L1740.64 103.334H1745.7Z" fill="#F2C230"/>
<path d="M1854.83 35.0002H1796.29L1808.79 47.5002H1849.65L1854.83 35.0002Z" fill="url(#paint18_linear_123_5)"/>
<path d="M1890.18 10.0002L1820.25 178.934L1920.25 278.934L1990.18 110.001L1890.18 10.0002Z" fill="url(#paint19_linear_123_5)"/>
<path d="M1990.18 460.002L1890.18 360.001H1778.13L1819.79 401.665L1878.13 460.002H1990.18Z" fill="url(#paint20_linear_123_5)"/>
<path d="M1793.73 335.001H1801.53L1768.32 246.701L1755.82 234.201L1793.73 335.001Z" fill="url(#paint21_linear_123_5)"/>
<path d="M1820.25 178.934L1890.18 360.001L1990.18 460.002L1920.25 278.934L1820.25 178.934Z" fill="url(#paint22_linear_123_5)"/>
<path fill-rule="evenodd" clip-rule="evenodd" d="M1387.41 114.245V335H1506.59C1539.59 301.994 1558.1 283.488 1591.11 250.482V47.5007L1320.66 47.5002L1374.91 101.745L1387.41 114.245ZM1450.75 295.401L1438.25 282.901V87.1008H1544.54L1557.04 99.601V224.41L1486.05 295.401H1450.75Z" fill="url(#paint23_linear_123_5)"/>
<path d="M1855.52 335.001L1795.25 178.934L1849.65 47.5002H1808.79L1773.83 140.834H1737.51L1725.01 128.334L1694.73 47.5002H1638.55L1697.27 195.168L1643.13 335.001H1682.4L1719.88 234.201H1755.82L1768.32 246.701L1801.53 335.001H1855.52Z" fill="url(#paint24_linear_123_5)"/>
<path d="M1516.81 360.002L1616.81 460.001L1653.89 422.918L1590.97 360.001L1625.32 271.293L1615.42 261.392L1516.81 360L1516.81 360.002Z" fill="url(#paint25_linear_123_5)"/>
<path d="M1698.1 360.001H1590.97L1653.89 422.918L1691.11 460.002H1798.1L1698.1 360.001Z" fill="url(#paint26_linear_123_5)"/>
<path d="M1778.13 360.001L1740.22 259.201H1735.59L1698.1 360.001L1798.1 460.002L1819.79 401.665L1778.13 360.001Z" fill="url(#paint27_linear_123_5)"/>
<path d="M1740.64 103.334L1735.96 105.088L1737.17 108.334H1740.64V103.334ZM1745.7 103.334V108.334H1749.16L1750.38 105.088L1745.7 103.334ZM1820.25 178.934L1815.63 177.022L1814.87 178.87L1815.59 180.735L1820.25 178.934ZM1778.13 360.001L1773.45 361.761L1773.83 362.773L1774.59 363.537L1778.13 360.001ZM1740.22 259.201L1744.9 257.441L1743.68 254.201H1740.22V259.201ZM1735.59 259.201V254.201H1732.11L1730.9 257.458L1735.59 259.201ZM1590.97 360.001L1586.31 358.196L1585.13 361.234L1587.44 363.537L1590.97 360.001ZM1659.77 182.668L1664.43 184.476L1665.14 182.645L1664.41 180.82L1659.77 182.668ZM1374.91 335H1369.91V340H1374.91V335ZM1463.25 112.101V107.101H1458.25V112.101H1463.25ZM1438.25 282.901H1433.25V284.972L1434.71 286.436L1438.25 282.901ZM1438.25 87.1008V82.1008H1433.25V87.1008H1438.25ZM1544.54 87.1008L1548.08 83.5653L1546.61 82.1008H1544.54V87.1008ZM1450.75 295.401L1447.21 298.936L1448.67 300.401H1450.75V295.401ZM1557.04 99.601H1562.04V97.53L1560.58 96.0655L1557.04 99.601ZM1308.16 35.0002V30.0002H1296.09L1304.62 38.5357L1308.16 35.0002ZM1795.25 178.934L1790.63 177.022L1789.87 178.87L1790.59 180.735L1795.25 178.934ZM1725.01 128.334L1720.32 130.088L1720.7 131.103L1721.47 131.87L1725.01 128.334ZM1719.88 234.201V229.201H1716.41L1715.2 232.458L1719.88 234.201ZM1755.82 234.201L1759.35 230.666L1757.89 229.201H1755.82V234.201ZM1855.52 335.001V340.001H1862.81L1860.19 333.2L1855.52 335.001ZM1793.73 335.001L1789.05 336.761L1790.27 340.001H1793.73V335.001ZM1796.29 35.0002V30.0002H1792.83L1791.61 33.2462L1796.29 35.0002ZM1854.83 35.0002L1859.45 36.9124L1862.31 30.0002H1854.83V35.0002ZM1690.04 35.0002L1694.73 33.2462L1693.51 30.0002H1690.04V35.0002ZM1626.05 35.0002V30.0002H1618.68L1621.4 36.8477L1626.05 35.0002ZM1625.79 335.001L1621.12 333.196L1618.49 340.001H1625.79V335.001ZM1682.4 335.001V340.001H1685.87L1687.08 336.744L1682.4 335.001ZM1697.27 195.168L1701.93 196.973L1702.64 195.143L1701.91 193.32L1697.27 195.168ZM1773.83 140.834V145.834H1777.3L1778.51 142.588L1773.83 140.834ZM1768.32 246.701L1773 244.941L1772.62 243.93L1771.85 243.166L1768.32 246.701ZM1694.73 47.5002L1699.41 45.7462V45.7462L1694.73 47.5002ZM1737.51 140.834L1733.97 144.37L1735.43 145.834H1737.51V140.834ZM1591.11 250.482L1594.64 254.017L1596.11 252.553V250.482H1591.11ZM1519.54 201.556L1523.08 205.091L1524.54 203.627V201.556H1519.54ZM1544.54 211.911H1539.54V213.982L1541.01 215.447L1544.54 211.911ZM1591.11 35.0002H1596.11V30.0002H1591.11V35.0002ZM1557.04 224.41L1560.58 227.946L1562.04 226.481V224.41H1557.04ZM1615.55 71.4748L1620.2 69.6273L1610.55 71.4712L1615.55 71.4748ZM1516.81 360.002L1513.27 356.466L1509.74 360.002L1513.27 363.537L1516.81 360.002ZM1616.81 460.001L1613.27 463.536L1614.71 464.98L1616.76 465L1616.81 460.001ZM1516.81 360L1520.3 363.577L1520.32 363.557L1520.34 363.536L1516.81 360ZM1486.05 295.401V300.401H1488.12L1489.59 298.936L1486.05 295.401ZM1387.41 114.245H1392.41V112.174L1390.94 110.71L1387.41 114.245ZM1519.54 112.101H1524.54V107.101H1519.54V112.101ZM1463.25 257.853H1458.25V269.924L1466.78 261.388L1463.25 257.853ZM1506.59 335V340H1508.66L1510.12 338.536L1506.59 335ZM1890.18 10.0002L1885.56 8.08793L1815.63 177.022L1820.25 178.934L1824.87 180.846L1894.8 11.9124L1890.18 10.0002ZM1820.25 178.934L1815.59 180.735L1885.51 361.803L1890.18 360.001L1894.84 358.2L1824.92 177.133L1820.25 178.934ZM1778.13 360.001L1782.81 358.241L1744.9 257.441L1740.22 259.201L1735.54 260.961L1773.45 361.761L1778.13 360.001ZM1698.1 360.001V355.001H1590.97V360.001V365.001H1698.1V360.001ZM1450.75 295.401L1454.28 291.865L1441.78 279.365L1438.25 282.901L1434.71 286.436L1447.21 298.936L1450.75 295.401ZM1557.04 99.601L1560.58 96.0655L1548.08 83.5653L1544.54 87.1008L1541.01 90.6363L1553.51 103.137L1557.04 99.601ZM1320.66 47.5002L1324.2 43.9647L1311.7 31.4647L1308.16 35.0002L1304.62 38.5357L1317.12 51.0357L1320.66 47.5002ZM1796.29 35.0002V40.0002H1854.83V35.0002V30.0002H1796.29V35.0002ZM1795.25 178.934L1790.59 180.735L1850.86 336.802L1855.52 335.001L1860.19 333.2L1799.92 177.133L1795.25 178.934ZM1808.79 47.5002L1812.33 43.9646L1799.83 31.4646L1796.29 35.0002L1792.76 38.5357L1805.26 51.0357L1808.79 47.5002ZM1697.27 195.168L1700.8 191.632L1688.3 179.132L1684.77 182.668L1681.23 186.203L1693.73 198.703L1697.27 195.168ZM1854.83 35.0002L1850.21 33.0879L1845.03 45.5879L1849.65 47.5002L1854.27 49.4124L1859.45 36.9124L1854.83 35.0002ZM1849.65 47.5002L1845.03 45.5879L1790.63 177.022L1795.25 178.934L1799.87 180.846L1854.27 49.4124L1849.65 47.5002ZM1808.79 47.5002V52.5002H1849.65V47.5002V42.5002H1808.79V47.5002ZM1697.27 195.168L1692.6 193.362L1638.46 333.196L1643.13 335.001L1647.79 336.807L1701.93 196.973L1697.27 195.168ZM1643.13 335.001V340.001H1682.4V335.001V330.001H1643.13V335.001ZM1801.53 335.001V340.001H1855.52V335.001V330.001H1801.53V335.001ZM1625.79 335.001V340.001H1643.13V335.001V330.001H1625.79V335.001ZM1801.53 335.001V330.001H1793.73V335.001V340.001H1801.53V335.001ZM1745.7 103.334L1750.38 105.088L1764.91 66.2999L1760.23 64.5459L1755.54 62.792L1741.01 101.58L1745.7 103.334ZM1737.51 140.834L1741.04 137.299L1728.54 124.799L1725.01 128.334L1721.47 131.87L1733.97 144.37L1737.51 140.834ZM1773.83 140.834L1777.37 137.299L1764.87 124.799L1761.33 128.334L1757.8 131.87L1770.3 144.37L1773.83 140.834ZM1737.51 140.834V145.834H1773.83V140.834V135.834H1737.51V140.834ZM1768.32 246.701L1771.85 243.166L1759.35 230.666L1755.82 234.201L1752.28 237.737L1764.78 250.237L1768.32 246.701ZM1890.18 360.001L1886.64 363.537L1986.64 463.537L1990.18 460.002L1993.71 456.466L1893.71 356.466L1890.18 360.001ZM1820.25 178.934L1816.72 182.47L1916.72 282.47L1920.25 278.934L1923.79 275.399L1823.79 175.399L1820.25 178.934ZM1819.79 401.665L1823.33 398.129L1781.67 356.466L1778.13 360.001L1774.59 363.537L1816.26 405.2L1819.79 401.665ZM1638.55 47.5002L1642.08 43.9646L1629.58 31.4646L1626.05 35.0002L1622.51 38.5357L1635.01 51.0357L1638.55 47.5002ZM1626.05 35.0002L1621.4 36.8477L1680.12 184.515L1684.77 182.668L1689.41 180.82L1630.69 33.1527L1626.05 35.0002ZM1557.04 224.41L1560.58 220.875L1548.08 208.376L1544.54 211.911L1541.01 215.447L1553.51 227.946L1557.04 224.41ZM1557.04 224.41H1562.04V99.601H1557.04H1552.04V224.41H1557.04ZM1516.81 360.002L1513.27 363.537L1613.27 463.536L1616.81 460.001L1620.34 456.465L1520.34 356.466L1516.81 360.002ZM1616.81 460.001L1616.76 465L1616.89 465.002L1616.94 460.002L1616.99 455.002L1616.85 455.001L1616.81 460.001ZM1516.81 360V355H1349.91V360V365H1516.81V360ZM1516.81 360.002L1520.3 363.578L1520.3 363.577L1516.81 360L1513.31 356.423L1513.31 356.425L1516.81 360.002ZM1486.05 295.401L1489.59 291.865L1477.09 279.365L1473.55 282.901L1470.02 286.436L1482.52 298.936L1486.05 295.401ZM1438.25 282.901V287.901H1473.55V282.901V277.901H1438.25V282.901ZM1450.75 295.401V300.401H1486.05V295.401V290.401H1450.75V295.401ZM1486.05 295.401L1489.59 298.936L1560.58 227.946L1557.04 224.41L1553.51 220.875L1482.52 291.865L1486.05 295.401ZM1544.54 211.91H1539.54V211.911H1544.54H1549.54V211.91H1544.54ZM1473.55 282.901L1477.09 286.436L1548.08 215.446L1544.54 211.91L1541.01 208.375L1470.02 279.365L1473.55 282.901ZM1387.41 335H1392.41V114.245H1387.41H1382.41V335H1387.41ZM1308.16 35.0002L1304.62 38.5357L1371.37 105.281L1374.91 101.745L1378.44 98.2098L1311.7 31.4647L1308.16 35.0002ZM1374.91 101.745L1371.37 105.281L1383.87 117.781L1387.41 114.245L1390.94 110.71L1378.44 98.2098L1374.91 101.745ZM1374.91 335H1379.91V101.745H1374.91H1369.91V335H1374.91ZM1463.25 112.101V117.101H1519.54V112.101V107.101H1463.25V112.101ZM1463.25 257.853L1466.78 261.388L1523.08 205.091L1519.54 201.556L1516.01 198.02L1459.71 254.317L1463.25 257.853ZM1463.25 112.101H1458.25V257.853H1463.25H1468.25V112.101H1463.25ZM1438.25 87.1008H1433.25V282.901H1438.25H1443.25V87.1008H1438.25ZM1438.25 87.1008V92.1008H1544.54V87.1008V82.1008H1438.25V87.1008ZM1519.54 112.101H1514.54V168.398H1519.54H1524.54V112.101H1519.54ZM1519.54 168.398H1514.54V201.556H1519.54H1524.54V168.398H1519.54ZM1463.25 112.101L1459.71 115.637L1516.01 171.933L1519.54 168.398L1523.08 164.862L1466.78 108.566L1463.25 112.101ZM1591.11 250.482H1596.11V47.5007H1591.11H1586.11V250.482H1591.11ZM1591.11 47.5007H1596.11V35.0002H1591.11H1586.11V47.5007H1591.11ZM1320.66 47.5002L1320.66 52.5002L1591.11 52.5007V47.5007V42.5007L1320.66 42.5002L1320.66 47.5002ZM1308.16 35.0002V40.0002H1591.11V35.0002V30.0002H1308.16V35.0002ZM1705.68 10.0002L1701 11.7541L1735.96 105.088L1740.64 103.334L1745.32 101.58L1710.36 8.24623L1705.68 10.0002ZM1625.32 271.293L1628.85 267.757L1618.95 257.857L1615.42 261.392L1611.88 264.928L1621.78 274.828L1625.32 271.293ZM1615.42 261.392L1620.42 261.396L1620.55 71.4783L1615.55 71.4748L1610.55 71.4712L1610.42 261.389L1615.42 261.392ZM1516.81 360.002L1520.34 363.537L1618.95 264.928L1615.42 261.392L1611.88 257.857L1513.27 356.466L1516.81 360.002ZM1374.91 335V340H1506.59V335V330H1374.91V335ZM1506.59 335L1510.12 338.536C1526.63 322.032 1539.5 309.155 1552.38 296.277C1565.26 283.399 1578.14 270.521 1594.64 254.017L1591.11 250.482L1587.57 246.946C1571.07 263.45 1558.19 276.327 1545.31 289.205C1532.43 302.083 1519.56 314.961 1503.05 331.465L1506.59 335ZM1615.55 71.4748L1610.9 73.3223L1655.12 184.515L1659.77 182.668L1664.41 180.82L1620.2 69.6273L1615.55 71.4748ZM1659.77 182.668L1655.1 180.859L1586.31 358.193L1590.97 360.001L1595.63 361.81L1664.43 184.476L1659.77 182.668ZM1626.05 35.0002V40.0002H1690.04V35.0002V30.0002H1626.05V35.0002ZM1638.55 47.5002V52.5002H1694.73V47.5002V42.5002H1638.55V47.5002ZM1690.04 35.0002L1685.36 36.7541L1720.32 130.088L1725.01 128.334L1729.69 126.58L1694.73 33.2462L1690.04 35.0002ZM1638.55 47.5002L1633.9 49.3477L1692.62 197.015L1697.27 195.168L1701.91 193.32L1643.19 45.6527L1638.55 47.5002ZM1684.77 182.668L1680.1 180.862L1621.12 333.196L1625.79 335.001L1630.45 336.807L1689.43 184.473L1684.77 182.668ZM1719.88 234.201L1715.2 232.458L1677.71 333.258L1682.4 335.001L1687.08 336.744L1724.57 235.944L1719.88 234.201ZM1719.88 234.201V239.201H1755.82V234.201V229.201H1719.88V234.201ZM1735.59 259.201V264.201H1740.22V259.201V254.201H1735.59V259.201ZM1698.1 360.001L1702.78 361.744L1740.27 260.944L1735.59 259.201L1730.9 257.458L1693.41 358.258L1698.1 360.001ZM1755.82 234.201L1751.14 235.961L1789.05 336.761L1793.73 335.001L1798.41 333.241L1760.5 232.441L1755.82 234.201ZM1768.32 246.701L1763.64 248.461L1796.85 336.761L1801.53 335.001L1806.21 333.241L1773 244.941L1768.32 246.701ZM1778.13 360.001V365.001H1890.18V360.001V355.001H1778.13V360.001ZM1740.64 103.334V108.334H1745.7V103.334V98.3337H1740.64V103.334ZM1725.01 128.334V133.334H1761.33V128.334V123.334H1725.01V128.334ZM1796.29 35.0002L1791.61 33.2462L1756.65 126.58L1761.33 128.334L1766.01 130.088L1800.98 36.7541L1796.29 35.0002ZM1773.83 140.834L1778.51 142.588L1813.48 49.2541L1808.79 47.5002L1804.11 45.7462L1769.15 139.08L1773.83 140.834ZM1516.81 360L1520.34 363.536L1618.95 264.928L1615.42 261.392L1611.88 257.857L1513.27 356.465L1516.81 360ZM1659.77 182.668L1655.11 180.856L1620.66 269.481L1625.32 271.293L1629.98 273.104L1664.43 184.479L1659.77 182.668ZM1625.32 271.293L1620.65 269.487L1586.31 358.196L1590.97 360.001L1595.63 361.807L1629.98 273.098L1625.32 271.293ZM1506.59 335V330H1387.41V335V340H1506.59V335ZM1387.41 335V330H1374.91V335V340H1387.41V335ZM1374.91 101.745L1378.44 98.2098L1324.2 43.9647L1320.66 47.5002L1317.12 51.0357L1371.37 105.281L1374.91 101.745ZM1690.04 35.0002L1685.36 36.7541L1690.04 49.2541L1694.73 47.5002L1699.41 45.7462L1694.73 33.2462L1690.04 35.0002ZM1694.73 47.5002L1690.04 49.2541L1720.32 130.088L1725.01 128.334L1729.69 126.58L1699.41 45.7462L1694.73 47.5002ZM1544.54 211.91H1549.54V87.1008H1544.54H1539.54V211.91H1544.54ZM1653.89 422.918L1657.42 419.383L1594.51 356.466L1590.97 360.001L1587.44 363.537L1650.35 426.454L1653.89 422.918ZM1698.1 360.001L1694.56 363.537L1794.56 463.537L1798.1 460.002L1801.63 456.466L1701.63 356.466L1698.1 360.001ZM1591.11 360.003L1587.57 363.538L1687.57 463.537L1691.11 460.002L1694.64 456.466L1594.64 356.467L1591.11 360.003ZM1544.54 87.1008H1539.54V149.506H1544.54H1549.54V87.1008H1544.54ZM1544.54 149.506H1539.54V211.911H1544.54H1549.54V149.506H1544.54ZM1349.91 360H1339.91V364.142L1342.83 367.071L1349.91 360ZM1705.68 10.0002L1712.75 2.92908L1709.82 0.000153542L1705.68 0.000152588V10.0002ZM1780.66 10.0002V0.000152588H1773.72L1771.29 6.49229L1780.66 10.0002ZM1890.18 10.0002L1897.25 2.9291L1894.32 0.000152588H1890.18V10.0002ZM1349.91 112.101H1359.91V107.959L1356.98 105.03L1349.91 112.101ZM1247.81 10L1247.81 0L1223.66 -7.62939e-06L1240.73 17.071L1247.81 10ZM1760.23 64.5459L1753.15 71.617L1764.14 82.6027L1769.59 68.0538L1760.23 64.5459ZM1691.11 460.002L1684.05 467.086L1686.97 470.002H1691.11V460.002ZM1798.1 460.002V470.002H1805.05L1807.47 463.488L1798.1 460.002ZM1878.13 460.002L1871.06 467.073L1873.99 470.002H1878.13V460.002ZM1990.18 460.002V470.002H2004.76L1999.5 456.399L1990.18 460.002ZM1920.25 278.934L1911.01 275.11L1909.48 278.805L1910.92 282.537L1920.25 278.934ZM1990.18 110.001L1999.42 113.825L2001.97 107.653L1997.25 102.929L1990.18 110.001ZM1819.79 401.665L1826.86 394.594L1815.85 383.58L1810.42 398.179L1819.79 401.665ZM1449.91 460.001L1442.83 467.072L1445.76 470.001H1449.91V460.001ZM1616.81 460.001V470.001H1620.95L1623.88 467.072L1616.81 460.001ZM1653.89 422.918L1660.95 415.834L1653.87 408.789L1646.82 415.847L1653.89 422.918ZM1780.66 10.0002V20.0002H1890.18V10.0002V0.000152588H1780.66V10.0002ZM1760.23 64.5459L1769.59 68.0538L1790.02 13.508L1780.66 10.0002L1771.29 6.49229L1750.86 61.0381L1760.23 64.5459ZM1890.18 10.0002L1883.11 17.0712L1983.11 117.072L1990.18 110.001L1997.25 102.929L1897.25 2.9291L1890.18 10.0002ZM1691.11 460.002V470.002H1798.1V460.002V450.002H1691.11V460.002ZM1878.13 460.002V470.002H1990.18V460.002V450.002H1878.13V460.002ZM1990.18 460.002L1999.5 456.399L1929.58 275.332L1920.25 278.934L1910.92 282.537L1980.85 463.604L1990.18 460.002ZM1920.25 278.934L1929.49 282.759L1999.42 113.825L1990.18 110.001L1980.94 106.176L1911.01 275.11L1920.25 278.934ZM1798.1 460.002L1807.47 463.488L1829.17 405.151L1819.79 401.665L1810.42 398.179L1788.72 456.516L1798.1 460.002ZM1819.79 401.665L1812.72 408.736L1871.06 467.073L1878.13 460.002L1885.2 452.931L1826.86 394.594L1819.79 401.665ZM1349.91 112.101H1339.91V360H1349.91H1359.91V112.101H1349.91ZM1349.91 360L1342.83 367.071L1442.83 467.072L1449.91 460.001L1456.98 452.93L1356.98 352.929L1349.91 360ZM1449.91 460.001V470.001H1616.81V460.001V450.001H1449.91V460.001ZM1247.81 10L1240.73 17.071L1342.83 119.172L1349.91 112.101L1356.98 105.03L1254.88 2.92896L1247.81 10ZM1247.81 10L1247.81 20L1705.68 20.0002V10.0002V0.000152588L1247.81 0L1247.81 10ZM1705.68 10.0002L1698.61 17.0712L1753.15 71.617L1760.23 64.5459L1767.3 57.4749L1712.75 2.92908L1705.68 10.0002ZM1616.81 460.001L1623.88 467.072L1660.96 429.989L1653.89 422.918L1646.82 415.847L1609.73 452.929L1616.81 460.001ZM1653.89 422.918L1646.83 430.002L1684.05 467.086L1691.11 460.002L1698.16 452.918L1660.95 415.834L1653.89 422.918Z" fill="#332725" mask="url(#path-3-outside-2_123_5)"/>
<defs>
<linearGradient id="paint0_linear_123_5" x1="24.1421" y1="235.002" x2="1374.81" y2="235.002" gradientUnits="userSpaceOnUse">
<stop offset="0.5" stop-color="#4D86E8"/>
<stop offset="0.764423" stop-color="#3C69B5"/>
<stop offset="1" stop-color="#2B4B82"/>
</linearGradient>
<linearGradient id="paint1_linear_123_5" x1="24.1421" y1="235.002" x2="1374.81" y2="235.002" gradientUnits="userSpaceOnUse">
<stop offset="0.889423" stop-color="#E94B2B"/>
<stop offset="0.9375" stop-color="#B63B22"/>
<stop offset="1" stop-color="#832A18"/>
</linearGradient>
<linearGradient id="paint2_linear_123_5" x1="1618.99" y1="10" x2="1618.99" y2="460.002" gradientUnits="userSpaceOnUse">
<stop stop-color="#F2C230"/>
<stop offset="0.615385" stop-color="#BF9926"/>
<stop offset="1" stop-color="#8C701C"/>
</linearGradient>
<linearGradient id="paint3_linear_123_5" x1="1618.99" y1="10" x2="1618.99" y2="460.002" gradientUnits="userSpaceOnUse">
<stop stop-color="#8C701C"/>
<stop offset="0.0865385" stop-color="#BF9926"/>
<stop offset="0.278846" stop-color="#F2C230"/>
<stop offset="0.370192" stop-color="#F6E09C"/>
<stop offset="0.466346" stop-color="#F2C230"/>
<stop offset="0.759615" stop-color="#BF9926"/>
<stop offset="0.855769" stop-color="#8C701C"/>
</linearGradient>
<linearGradient id="paint4_linear_123_5" x1="1618.99" y1="10" x2="1618.99" y2="460.002" gradientUnits="userSpaceOnUse">
<stop stop-color="#8C701C"/>
<stop offset="0.0865385" stop-color="#BF9926"/>
<stop offset="0.278846" stop-color="#F2C230"/>
<stop offset="0.370192" stop-color="#F6E09C"/>
<stop offset="0.466346" stop-color="#F2C230"/>
<stop offset="0.759615" stop-color="#BF9926"/>
<stop offset="0.855769" stop-color="#8C701C"/>
</linearGradient>
<linearGradient id="paint5_linear_123_5" x1="1618.99" y1="10" x2="1618.99" y2="460.002" gradientUnits="userSpaceOnUse">
<stop offset="0.899038" stop-color="#8C701C"/>
<stop offset="0.9375" stop-color="#BF9926"/>
<stop offset="1" stop-color="#F2C230"/>
</linearGradient>
<linearGradient id="paint6_linear_123_5" x1="1618.99" y1="10" x2="1618.99" y2="460.002" gradientUnits="userSpaceOnUse">
<stop stop-color="#F2C230"/>
<stop offset="0.129808" stop-color="#BF9926"/>
<stop offset="0.350962" stop-color="#8C701C"/>
</linearGradient>
<linearGradient id="paint7_linear_123_5" x1="1618.99" y1="10" x2="1618.99" y2="460.002" gradientUnits="userSpaceOnUse">
<stop stop-color="#F2C230"/>
<stop offset="0.0817308" stop-color="#BF9926"/>
<stop offset="0.197115" stop-color="#8C701C"/>
</linearGradient>
<linearGradient id="paint8_linear_123_5" x1="1618.99" y1="10" x2="1618.99" y2="460.002" gradientUnits="userSpaceOnUse">
<stop stop-color="#F2C230"/>
<stop offset="0.129808" stop-color="#BF9926"/>
<stop offset="0.326923" stop-color="#8C701C"/>
</linearGradient>
<linearGradient id="paint9_linear_123_5" x1="1618.99" y1="10" x2="1618.99" y2="460.002" gradientUnits="userSpaceOnUse">
<stop stop-color="#F2C230"/>
<stop offset="0.25" stop-color="#BF9926"/>
<stop offset="0.533654" stop-color="#8C701C"/>
</linearGradient>
<linearGradient id="paint10_linear_123_5" x1="1618.99" y1="10" x2="1618.99" y2="460.002" gradientUnits="userSpaceOnUse">
<stop stop-color="#F2C230"/>
<stop offset="0.230769" stop-color="#BF9926"/>
<stop offset="0.485577" stop-color="#8C701C"/>
</linearGradient>
<linearGradient id="paint11_linear_123_5" x1="1618.99" y1="10" x2="1618.99" y2="460.002" gradientUnits="userSpaceOnUse">
<stop stop-color="#F2C230"/>
<stop offset="0.322115" stop-color="#BF9926"/>
<stop offset="0.980769" stop-color="#8C701C"/>
</linearGradient>
<linearGradient id="paint12_linear_123_5" x1="1618.99" y1="10" x2="1618.99" y2="460.002" gradientUnits="userSpaceOnUse">
<stop stop-color="#F2C230"/>
<stop offset="0.153846" stop-color="#BF9926"/>
<stop offset="0.475962" stop-color="#8C701C"/>
</linearGradient>
<linearGradient id="paint13_linear_123_5" x1="1618.99" y1="10" x2="1618.99" y2="460.002" gradientUnits="userSpaceOnUse">
<stop offset="0.899038" stop-color="#8C701C"/>
<stop offset="0.9375" stop-color="#BF9926"/>
<stop offset="1" stop-color="#F2C230"/>
</linearGradient>
<linearGradient id="paint14_linear_123_5" x1="1618.99" y1="10" x2="1618.99" y2="460.002" gradientUnits="userSpaceOnUse">
<stop stop-color="#F2C230"/>
<stop offset="0.129808" stop-color="#BF9926"/>
<stop offset="0.346154" stop-color="#8C701C"/>
</linearGradient>
<linearGradient id="paint15_linear_123_5" x1="1618.99" y1="10" x2="1618.99" y2="460.002" gradientUnits="userSpaceOnUse">
<stop stop-color="#F2C230"/>
<stop offset="0.341346" stop-color="#BF9926"/>
<stop offset="0.581731" stop-color="#8C701C"/>
</linearGradient>
<linearGradient id="paint16_linear_123_5" x1="1618.99" y1="10" x2="1618.99" y2="460.002" gradientUnits="userSpaceOnUse">
<stop stop-color="#F2C230"/>
<stop offset="0.149038" stop-color="#BF9926"/>
<stop offset="0.302885" stop-color="#8C701C"/>
</linearGradient>
<linearGradient id="paint17_linear_123_5" x1="1618.99" y1="10" x2="1618.99" y2="460.002" gradientUnits="userSpaceOnUse">
<stop stop-color="#F2C230"/>
<stop offset="0.134615" stop-color="#BF9926"/>
<stop offset="0.918269" stop-color="#8C701C"/>
</linearGradient>
<linearGradient id="paint18_linear_123_5" x1="1618.99" y1="10" x2="1618.99" y2="460.002" gradientUnits="userSpaceOnUse">
<stop offset="0.899038" stop-color="#8C701C"/>
<stop offset="0.9375" stop-color="#BF9926"/>
<stop offset="1" stop-color="#F2C230"/>
</linearGradient>
<linearGradient id="paint19_linear_123_5" x1="1618.99" y1="10" x2="1618.99" y2="460.002" gradientUnits="userSpaceOnUse">
<stop stop-color="#F2C230"/>
<stop offset="0.0432692" stop-color="#BF9926"/>
<stop offset="0.163462" stop-color="#8C701C"/>
</linearGradient>
<linearGradient id="paint20_linear_123_5" x1="1618.99" y1="10" x2="1618.99" y2="460.002" gradientUnits="userSpaceOnUse">
<stop stop-color="#F2C230"/>
<stop offset="0.615385" stop-color="#BF9926"/>
<stop offset="1" stop-color="#8C701C"/>
</linearGradient>
<linearGradient id="paint21_linear_123_5" x1="1618.99" y1="10" x2="1618.99" y2="460.002" gradientUnits="userSpaceOnUse">
<stop stop-color="#F2C230"/>
<stop offset="0.514423" stop-color="#BF9926"/>
<stop offset="0.634615" stop-color="#8C701C"/>
</linearGradient>
<linearGradient id="paint22_linear_123_5" x1="1618.99" y1="10" x2="1618.99" y2="460.002" gradientUnits="userSpaceOnUse">
<stop stop-color="#F2C230"/>
<stop offset="0.581731" stop-color="#BF9926"/>
<stop offset="0.850962" stop-color="#8C701C"/>
</linearGradient>
<linearGradient id="paint23_linear_123_5" x1="1618.99" y1="10" x2="1618.99" y2="460.002" gradientUnits="userSpaceOnUse">
<stop stop-color="#832A18"/>
<stop offset="0.129808" stop-color="#9D321D"/>
<stop offset="0.25" stop-color="#E94B2B"/>
<stop offset="0.413462" stop-color="#FAB9AC"/>
<stop offset="0.572115" stop-color="#E94B2B" stop-opacity="0.88"/>
<stop offset="0.677885" stop-color="#9D321D"/>
<stop offset="1" stop-color="#832A18"/>
</linearGradient>
<linearGradient id="paint24_linear_123_5" x1="1618.99" y1="10" x2="1618.99" y2="460.002" gradientUnits="userSpaceOnUse">
<stop stop-color="#832A18"/>
<stop offset="0.129808" stop-color="#9D321D"/>
<stop offset="0.25" stop-color="#E94B2B"/>
<stop offset="0.413462" stop-color="#FAB9AC"/>
<stop offset="0.572115" stop-color="#E94B2B" stop-opacity="0.88"/>
<stop offset="0.677885" stop-color="#9D321D"/>
<stop offset="1" stop-color="#832A18"/>
</linearGradient>
<linearGradient id="paint25_linear_123_5" x1="1618.99" y1="10" x2="1618.99" y2="460.002" gradientUnits="userSpaceOnUse">
<stop stop-color="#F2C230"/>
<stop offset="0.519231" stop-color="#BF9926"/>
<stop offset="0.841346" stop-color="#8C701C"/>
</linearGradient>
<linearGradient id="paint26_linear_123_5" x1="1618.99" y1="10" x2="1618.99" y2="460.002" gradientUnits="userSpaceOnUse">
<stop stop-color="#F2C230"/>
<stop offset="0.615385" stop-color="#BF9926"/>
<stop offset="1" stop-color="#8C701C"/>
</linearGradient>
<linearGradient id="paint27_linear_123_5" x1="1618.99" y1="10" x2="1618.99" y2="460.002" gradientUnits="userSpaceOnUse">
<stop stop-color="#F2C230"/>
<stop offset="0.0625" stop-color="#BF9926"/>
<stop offset="0.158654" stop-color="#8C701C"/>
</linearGradient>
</defs>
</svg>
